<?xml version="1.0" encoding="utf-8"?>
<!-- Generator: Adobe Illustrator 19.0.0, SVG Export Plug-In . SVG Version: 6.00 Build 0)  -->
<svg version="1.1" id="Calque_1" xmlns="http://www.w3.org/2000/svg" xmlns:xlink="http://www.w3.org/1999/xlink" x="0px" y="0px"
	 viewBox="-49 141 512 512" style="enable-background:new -49 141 512 512;" xml:space="preserve">
<style type="text/css">
	.st0{fill:#00D1B2;}
	.st1{fill:#7F00FF;}
	.st2{fill:#FFFFFF;}
</style>
<g>
	<path class="st0" d="M289.6,357.6v91.9c0,11.8-9.6,21.4-21.4,21.4h-91.5l-43.4,47.8v-47.8h-30.7c-11.8,0-21.4-9.6-21.4-21.4v-91.9
		c0-11.8,9.6-21.4,21.4-21.4h165.7C280,336.2,289.6,345.8,289.6,357.6z"/>
	<path class="st1" d="M311.6,275.3H145.9c-11.8,0-21.4,9.6-21.4,21.4v39.4h143.7c11.8,0,21.4,9.6,21.4,21.4V410h22
		c11.8,0,21.4-9.6,21.4-21.4v-91.8C333,284.9,323.4,275.3,311.6,275.3z"/>
	<path class="st2" d="M189.6,384h-60.8c-2.4,0-4.3-1.9-4.3-4.3s1.9-4.3,4.3-4.3h60.8c2.4,0,4.3,1.9,4.3,4.3S192,384,189.6,384z"/>
	<path class="st2" d="M246.1,410.1H128.8c-2.4,0-4.3-1.9-4.3-4.3s1.9-4.3,4.3-4.3h117.3c2.4,0,4.3,1.9,4.3,4.3
		S248.5,410.1,246.1,410.1z"/>
	<path class="st2" d="M246.1,436.2H128.8c-2.4,0-4.3-1.9-4.3-4.3s1.9-4.3,4.3-4.3h117.3c2.4,0,4.3,1.9,4.3,4.3
		S248.5,436.2,246.1,436.2z"/>
</g>
</svg>
