<?xml version="1.0" encoding="utf-8"?>
<!-- Generator: Adobe Illustrator 19.0.0, SVG Export Plug-In . SVG Version: 6.00 Build 0)  -->
<svg version="1.1" id="Calque_1" xmlns="http://www.w3.org/2000/svg" xmlns:xlink="http://www.w3.org/1999/xlink" x="0px" y="0px"
	 viewBox="-49 141 512 512" style="enable-background:new -49 141 512 512;" xml:space="preserve">
<style type="text/css">
	.st0{fill:#00D1B2;}
	.st1{fill:#04B290;}
	.st2{fill:#FFFFFF;}
	.st3{fill:#E1EBF0;}
	.st4{fill:#B4D2D7;}
	.st5{fill:#6FA5AA;}
	.st6{fill:#DEE3E7;}
</style>
<g id="surface1">
	<path class="st0" d="M286.9,432.2c-5.6,15.3-14.2,28.6-25.3,39.5C248.8,484.1,232.1,494,212,501c-0.7,0.2-1.4,0.4-2,0.6
		c-0.9,0.2-1.8,0.3-2.8,0.3H207c-1,0-2-0.1-3-0.3c-0.7-0.1-1.4-0.3-2-0.6c-20.2-7-36.9-16.9-49.6-29.3
		c-11.2-10.9-19.7-24.2-25.3-39.5c-10.2-27.8-9.7-58.4-9.2-83l0-0.4c0.1-2,0.2-4.2,0.2-6.5c0.2-11.6,9.4-21.1,20.9-21.8
		c24.1-1.3,42.8-9.2,58.7-24.7l0.1-0.1c2.6-2.4,6-3.6,9.3-3.6c3.2,0,6.4,1.2,8.9,3.6l0.1,0.1c15.9,15.5,34.6,23.4,58.7,24.7
		c11.6,0.6,20.8,10.2,20.9,21.8c0,2.4,0.1,4.5,0.2,6.5l0,0.2C296.6,373.7,297.1,404.3,286.9,432.2z"/>
	<path class="st1" d="M286.9,432.2c-5.6,15.3-14.2,28.6-25.3,39.5C248.8,484.1,232.1,494,212,501c-0.7,0.2-1.4,0.4-2,0.6
		c-0.9,0.2-1.8,0.3-2.8,0.3V292.1c3.2,0,6.4,1.2,8.9,3.6l0.1,0.1c15.9,15.5,34.6,23.4,58.7,24.7c11.6,0.6,20.8,10.2,20.9,21.8
		c0,2.4,0.1,4.5,0.2,6.5l0,0.2C296.6,373.7,297.1,404.3,286.9,432.2z"/>
	<path class="st2" d="M259.3,397c0,28.8-23.4,52.2-52.1,52.3H207c-28.8,0-52.3-23.5-52.3-52.3c0-28.8,23.5-52.3,52.3-52.3h0.2
		C235.9,344.8,259.3,368.2,259.3,397z"/>
	<path class="st3" d="M259.3,397c0,28.8-23.4,52.2-52.1,52.3V344.7C235.9,344.8,259.3,368.2,259.3,397z"/>
	<path class="st4" d="M230.7,389.5L207.2,413l-5.1,5.1c-1.2,1.2-2.8,1.8-4.4,1.8c-1.6,0-3.2-0.6-4.4-1.8l-10.9-10.9
		c-2.4-2.4-2.4-6.3,0-8.7c2.4-2.4,6.3-2.4,8.7,0l6.6,6.6l24.3-24.3c2.4-2.4,6.3-2.4,8.7,0C233.1,383.2,233.1,387.1,230.7,389.5z"/>
	<path class="st5" d="M230.7,389.5L207.2,413v-17.4l14.8-14.8c2.4-2.4,6.3-2.4,8.7,0C233.1,383.2,233.1,387.1,230.7,389.5z"/>
</g>
<g>
	<path class="st6" d="M57.4,247.9c-1.1-1.1-2.4-1.6-3.9-1.6H11.1v-18.4c0-4.1,1.4-7.6,4.3-10.4c2.9-2.9,6.4-4.3,10.4-4.3
		c4.1,0,7.6,1.4,10.4,4.3c2.9,2.9,4.3,6.4,4.3,10.4c0,1,0.4,1.9,1.1,2.6c0.7,0.7,1.6,1.1,2.6,1.1H48c1,0,1.9-0.4,2.6-1.1
		c0.7-0.7,1.1-1.6,1.1-2.6c0-7.1-2.5-13.2-7.6-18.2C39,204.5,33,202,25.9,202c-7.1,0-13.2,2.5-18.2,7.6C2.6,214.6,0,220.7,0,227.8
		v18.4h-1.8c-1.5,0-2.8,0.5-3.9,1.6c-1.1,1.1-1.6,2.4-1.6,3.9V285c0,1.5,0.5,2.8,1.6,3.9c1.1,1.1,2.4,1.6,3.9,1.6h55.3
		c1.5,0,2.8-0.5,3.9-1.6c1.1-1.1,1.6-2.4,1.6-3.9v-33.2C59,250.3,58.5,249,57.4,247.9z"/>
</g>
<circle class="st6" cx="25.8" cy="311.2" r="5.3"/>
<circle class="st6" cx="25.8" cy="339.2" r="5.3"/>
<circle class="st6" cx="25.8" cy="367.1" r="5.3"/>
<circle class="st6" cx="25.8" cy="395" r="5.3"/>
<circle class="st6" cx="25.8" cy="423" r="5.3"/>
<circle class="st6" cx="55.2" cy="423" r="5.3"/>
<circle class="st6" cx="84.5" cy="423" r="5.3"/>
</svg>
