<?xml version="1.0" encoding="utf-8"?>
<!-- Generator: Adobe Illustrator 19.0.0, SVG Export Plug-In . SVG Version: 6.00 Build 0)  -->
<svg version="1.1" id="Layer_1" xmlns="http://www.w3.org/2000/svg" xmlns:xlink="http://www.w3.org/1999/xlink" x="0px" y="0px"
	 viewBox="94 81 800 631" style="enable-background:new 94 81 800 631;" xml:space="preserve">
<style type="text/css">
	.st0{fill:#6900FF;}
	.st1{fill:#FFFFFF;stroke:#D3D3D3;stroke-width:4;stroke-miterlimit:10;}
	.st2{fill:#EBEBED;}
	.st3{fill:#00D1B2;}
</style>
<circle class="st0" cx="765.8" cy="187" r="45.7"/>
<path class="st1" d="M742,381.2H246c-13.2,0-23.8-5.6-23.8-12.5V193.5c0-6.9,10.7-12.5,23.8-12.5h496c13.2,0,23.8,5.6,23.8,12.5
	v175.3C765.8,375.6,755.2,381.2,742,381.2z"/>
<circle class="st2" cx="321.6" cy="281.8" r="45.6"/>
<rect x="400.4" y="250.1" class="st2" width="282.1" height="23.6"/>
<rect x="400.4" y="286.1" class="st2" width="149.7" height="23.6"/>
<path class="st1" d="M742,612H246c-13.2,0-23.8-5.6-23.8-12.5V424.3c0-6.9,10.7-12.5,23.8-12.5h496c13.2,0,23.8,5.6,23.8,12.5v175.3
	C765.8,606.4,755.2,612,742,612z"/>
<circle class="st2" cx="321.6" cy="512.6" r="45.6"/>
<rect x="400.4" y="480.9" class="st2" width="282.1" height="23.6"/>
<rect x="400.4" y="516.9" class="st2" width="232.2" height="23.6"/>
<circle class="st0" cx="209" cy="540.5" r="40.2"/>
<circle class="st0" cx="172.8" cy="440.6" r="23.3"/>
<g>
	<g>
		<path class="st3" d="M168.8,267.1c-2.2,0-4-1.8-4-4v-26c0-2.2,1.8-4,4-4s4,1.8,4,4v26C172.8,265.3,171,267.1,168.8,267.1z"/>
	</g>
	<g>
		<path class="st3" d="M181.8,254.1h-26c-2.2,0-4-1.8-4-4s1.8-4,4-4h26c2.2,0,4,1.8,4,4S184,254.1,181.8,254.1z"/>
	</g>
</g>
<g>
	<g>
		<path class="st3" d="M803,428.6c-2.2,0.3-4.2-1.3-4.4-3.5l-3-25.8c-0.3-2.2,1.3-4.2,3.5-4.4c2.2-0.3,4.2,1.3,4.4,3.5l3,25.8
			C806.7,426.4,805.2,428.3,803,428.6z"/>
	</g>
	<g>
		<path class="st3" d="M814.4,414.2l-25.8,3c-2.2,0.3-4.2-1.3-4.4-3.5c-0.3-2.2,1.3-4.2,3.5-4.4l25.8-3c2.2-0.3,4.2,1.3,4.4,3.5
			S816.6,413.9,814.4,414.2z"/>
	</g>
</g>
<g>
	<g>
		<path class="st3" d="M785,499.8c-0.9,0.1-1.8-0.6-1.9-1.5l-1.3-10.9c-0.1-0.9,0.6-1.8,1.5-1.9s1.8,0.6,1.9,1.5l1.3,10.9
			C786.6,498.8,785.9,499.7,785,499.8z"/>
	</g>
	<g>
		<path class="st3" d="M789.8,493.7l-10.9,1.3c-0.9,0.1-1.8-0.6-1.9-1.5c-0.1-0.9,0.6-1.8,1.5-1.9l10.9-1.3c0.9-0.1,1.8,0.6,1.9,1.5
			C791.4,492.8,790.7,493.6,789.8,493.7z"/>
	</g>
</g>
<g>
	<g>
		<path class="st3" d="M509.2,204.9c-3.1-0.9-4.9-4.2-3.9-7.3l11.1-36.6c0.9-3.1,4.2-4.9,7.3-3.9s4.9,4.2,3.9,7.3L516.5,201
			C515.6,204.1,512.3,205.9,509.2,204.9z"/>
	</g>
	<g>
		<path class="st3" d="M533.1,192.1L496.5,181c-3.1-0.9-4.9-4.2-3.9-7.3c0.9-3.1,4.2-4.9,7.3-3.9l36.6,11.1c3.1,0.9,4.9,4.2,3.9,7.3
			S536.2,193.1,533.1,192.1z"/>
	</g>
</g>
</svg>
