<?xml version="1.0" encoding="utf-8"?>
<!-- Generator: Adobe Illustrator 19.0.0, SVG Export Plug-In . SVG Version: 6.00 Build 0)  -->
<svg version="1.1" id="Layer_1" xmlns="http://www.w3.org/2000/svg" xmlns:xlink="http://www.w3.org/1999/xlink" x="0px" y="0px"
	 viewBox="94 81 800 631" style="enable-background:new 94 81 800 631;" xml:space="preserve">
<style type="text/css">
	.st0{fill:#6900FF;}
	.st1{fill:#FFFFFF;stroke:#D3D3D3;stroke-width:4;stroke-miterlimit:10;}
	.st2{fill:#EBEBED;}
	.st3{fill:#00D1B2;}
</style>
<g>
	<circle class="st0" cx="198.8" cy="375" r="45.7"/>
	<g>
		<path class="st1" d="M686,559L309.9,416.7c-10-3.8-15-14.9-11.2-24.9l96-253.8c3.8-10,14.9-15,24.9-11.2l376.1,142.3
			c10,3.8,15,14.9,11.2,24.9l-96,253.8C707.1,557.8,695.9,562.8,686,559z"/>
		<circle class="st2" cx="447.4" cy="212.7" r="29.3"/>
		
			<rect x="496.4" y="265.1" transform="matrix(-0.9353 -0.3538 0.3538 -0.9353 1084.8457 747.6576)" class="st2" width="228.7" height="19.1"/>
		<circle class="st2" cx="419.1" cy="287.5" r="29.3"/>
		
			<rect x="468.1" y="339.9" transform="matrix(-0.9353 -0.3538 0.3538 -0.9353 1003.6308 882.4128)" class="st2" width="228.7" height="19.1"/>
		<circle class="st2" cx="390.8" cy="362.4" r="29.3"/>
		
			<rect x="439.8" y="414.7" transform="matrix(-0.9353 -0.3538 0.3538 -0.9353 922.4158 1017.1675)" class="st2" width="228.7" height="19.1"/>
	</g>
	<g>
		<path class="st1" d="M638.2,667.4H236.1c-10.7,0-19.3-8.7-19.3-19.3V376.8c0-10.7,8.7-19.3,19.3-19.3h402.1
			c10.7,0,19.3,8.7,19.3,19.3v271.3C657.5,658.7,648.9,667.4,638.2,667.4z"/>
		<circle class="st2" cx="297.4" cy="439.2" r="37"/>
		<rect x="361.3" y="413.5" class="st2" width="228.7" height="19.1"/>
		<rect x="260.4" y="518.1" class="st2" width="348.8" height="19.1"/>
		<rect x="260.4" y="556.3" class="st2" width="241.3" height="19.1"/>
		<rect x="260.4" y="594.7" class="st2" width="309.4" height="19.1"/>
		<rect x="361.3" y="442.7" class="st2" width="149.5" height="19.1"/>
	</g>
	<circle class="st0" cx="746.3" cy="492.4" r="40.2"/>
	<circle class="st0" cx="329.7" cy="164.4" r="23.3"/>
	<g>
		<g>
			<path class="st3" d="M218.8,235.6c-2.2,0-4-1.8-4-4v-26c0-2.2,1.8-4,4-4s4,1.8,4,4v26C222.8,233.8,221,235.6,218.8,235.6z"/>
		</g>
		<g>
			<path class="st3" d="M231.8,222.6h-26c-2.2,0-4-1.8-4-4s1.8-4,4-4h26c2.2,0,4,1.8,4,4S234,222.6,231.8,222.6z"/>
		</g>
	</g>
	<g>
		<g>
			<path class="st3" d="M715.4,621.1c-2.2,0.3-4.2-1.3-4.4-3.5l-3-25.8c-0.3-2.2,1.3-4.2,3.5-4.4c2.2-0.3,4.2,1.3,4.4,3.5l3,25.8
				C719.1,618.9,717.6,620.8,715.4,621.1z"/>
		</g>
		<g>
			<path class="st3" d="M726.8,606.7l-25.8,3c-2.2,0.3-4.2-1.3-4.4-3.5c-0.3-2.2,1.3-4.2,3.5-4.4l25.8-3c2.2-0.3,4.2,1.3,4.4,3.5
				S729,606.4,726.8,606.7z"/>
		</g>
	</g>
	<g>
		<g>
			<path class="st3" d="M828.6,450.7c-0.9,0.1-1.8-0.6-1.9-1.5l-1.3-10.9c-0.1-0.9,0.6-1.8,1.5-1.9s1.8,0.6,1.9,1.5l1.3,10.9
				C830.2,449.7,829.5,450.6,828.6,450.7z"/>
		</g>
		<g>
			<path class="st3" d="M833.4,444.6l-10.9,1.3c-0.9,0.1-1.8-0.6-1.9-1.5c-0.1-0.9,0.6-1.8,1.5-1.9l10.9-1.3
				c0.9-0.1,1.8,0.6,1.9,1.5C835,443.7,834.3,444.5,833.4,444.6z"/>
		</g>
	</g>
	<g>
		<g>
			<path class="st3" d="M694.7,246.5c-3.1-0.9-4.9-4.2-3.9-7.3l11.1-36.6c0.9-3.1,4.2-4.9,7.3-3.9s4.9,4.2,3.9,7.3L702,242.6
				C701.1,245.7,697.8,247.5,694.7,246.5z"/>
		</g>
		<g>
			<path class="st3" d="M718.6,233.7L682,222.6c-3.1-0.9-4.9-4.2-3.9-7.3c0.9-3.1,4.2-4.9,7.3-3.9l36.6,11.1
				c3.1,0.9,4.9,4.2,3.9,7.3S721.7,234.7,718.6,233.7z"/>
		</g>
	</g>
</g>
</svg>
