<?xml version="1.0" encoding="utf-8"?>
<!-- Generator: Adobe Illustrator 19.0.0, SVG Export Plug-In . SVG Version: 6.00 Build 0)  -->
<svg version="1.1" xmlns="http://www.w3.org/2000/svg" xmlns:xlink="http://www.w3.org/1999/xlink" x="0px" y="0px"
	 viewBox="0 0 800 649.5" style="enable-background:new 0 0 800 649.5;" xml:space="preserve">
<style type="text/css">
	.st0{opacity:0.6;}
	.st1{fill:#5700FF;}
	.st2{opacity:0.6;fill:#00D1B2;}
	.st3{fill:#FFFFFF;}
	.st4{opacity:0.6;fill:#5700FF;}
	.st5{opacity:0.6;fill-rule:evenodd;clip-rule:evenodd;fill:#5700FF;}
	.st6{fill:#7B15FF;}
</style>
<g id="_x33_45">
	<g class="st0">
		<g>
			<path class="st1" d="M58.3,554.6c-2,0-3.7-1.7-3.7-3.7v-25.5c0-2,1.7-3.7,3.7-3.7s3.7,1.7,3.7,3.7v25.5
				C62.1,553,60.4,554.6,58.3,554.6z"/>
		</g>
		<g>
			<path class="st1" d="M71.1,541.9H45.6c-2,0-3.7-1.7-3.7-3.7s1.7-3.7,3.7-3.7h25.5c2,0,3.7,1.7,3.7,3.7
				C74.9,540.2,73.2,541.9,71.1,541.9z"/>
		</g>
	</g>
	<path class="st2" d="M695.6,339.1L695.6,339.1c0-16.3-13.2-29.5-29.5-29.5h-21.8c-13.4,0-24.3-10.9-24.3-24.3v-9.7
		c0-13.4-10.9-24.3-24.3-24.3h-3.2c-13.4,0-24.3-10.9-24.3-24.3v-9.7c0-13.4-10.9-24.3-24.3-24.3h-39.6c-13.4,0-24.3-10.9-24.3-24.3
		v-9.7c0-13.4-10.9-24.3-24.3-24.3H300c-13.4,0-24.3,10.9-24.3,24.3v9.8c0,13.4-10.9,24.3-24.3,24.3h-46.2
		c-13.4,0-24.3,10.9-24.3,24.3v9.7c0,13.4-10.9,24.3-24.3,24.3H92.1c-16.3,0-29.5,13.2-29.5,29.5l0,0c0,16.3,13.2,29.5,29.5,29.5
		h14.8c13.4,0,24.3,10.9,24.3,24.3v9.7c0,13.4,10.9,24.3,24.3,24.3h10c15.9,0,28.8,12.9,28.8,28.8l0,0c0,15.9-12.9,28.8-28.8,28.8
		h-19.9c-16.3,0-29.5,13.2-29.5,29.5l0,0c0,16.3,13.2,29.5,29.5,29.5h42.6c13.4,0,24.3,10.9,24.3,24.3v9.7
		c0,13.4,10.9,24.3,24.3,24.3l0,0c13.4,0,24.3,10.9,24.3,24.3v9.7c0,13.4,10.9,24.3,24.3,24.3h236c13.4,0,24.3-10.9,24.3-24.3v-9.7
		c0-13.4,10.9-24.3,24.3-24.3h1.3c13.4,0,24.3-10.9,24.3-24.3v-9.7c0-13.4,10.9-24.3,24.3-24.3h17.2c16.3,0,29.5-13.2,29.5-29.5l0,0
		c0-16.3-13.2-29.5-29.5-29.5h-8.8c-15.9,0-28.8-12.9-28.8-28.8l0,0c0-15.9,12.9-28.8,28.8-28.8h37.6
		C682.4,368.6,695.6,355.4,695.6,339.1z"/>
	<path class="st2" d="M149.7,193.5H75c-16.3,0-29.4-13.2-29.4-29.4l0,0c0-16.3,13.2-29.4,29.4-29.4h74.7c16.3,0,29.4,13.2,29.4,29.4
		l0,0C179.1,180.3,165.9,193.5,149.7,193.5z"/>
	<path class="st2" d="M640.5,134.6h-9.6h-5.7h-4h-5.6h-4h-5.7h-9.6c-16.3,0-29.4,13.2-29.4,29.4l0,0c0,16.3,13.2,29.4,29.4,29.4h9.6
		h5.7h4h5.6h4h5.7h9.6c16.3,0,29.4-13.2,29.4-29.4l0,0C669.9,147.8,656.7,134.6,640.5,134.6z"/>
	<path class="st2" d="M746.9,310.3h-16.8c-16.3,0-29.5-13.2-29.5-29.5l0,0c0-16.3,13.2-29.5,29.5-29.5h16.8
		c16.3,0,29.5,13.2,29.5,29.5l0,0C776.4,297.1,763.2,310.3,746.9,310.3z"/>
	<path class="st2" d="M72.8,426.2H52.4c-15.9,0-28.8-12.9-28.8-28.8l0,0c0-15.9,12.9-28.8,28.8-28.8h20.5
		c15.9,0,28.8,12.9,28.8,28.8l0,0C101.6,413.3,88.7,426.2,72.8,426.2z"/>
	<path class="st2" d="M633,601.9h56.6c16.1,0,29.2-13,29.2-29.2l0,0c0-16.1-13-29.2-29.2-29.2H633c-16.1,0-29.2,13-29.2,29.2l0,0
		C603.9,588.8,617,601.9,633,601.9z"/>
	<path class="st2" d="M169.7,601.9h-67.3c-16.1,0-29.2-13-29.2-29.2l0,0c0-16.1,13-29.2,29.2-29.2h67.3c16.1,0,29.2,13,29.2,29.2
		l0,0C198.9,588.8,185.8,601.9,169.7,601.9z"/>
	<g class="st0">
		<g>
			<path class="st1" d="M537,73.3c-2,0-3.7-1.7-3.7-3.7V44.1c0-2,1.7-3.7,3.7-3.7s3.7,1.7,3.7,3.7v25.4
				C540.7,71.6,539.1,73.3,537,73.3z"/>
		</g>
		<g>
			<path class="st1" d="M549.7,60.6h-25.4c-2,0-3.7-1.7-3.7-3.7c0-2,1.7-3.7,3.7-3.7h25.4c2,0,3.7,1.7,3.7,3.7
				C553.5,58.9,551.8,60.6,549.7,60.6z"/>
		</g>
	</g>
	<g class="st0">
		<g>
			<path class="st1" d="M261.2,104.2c-2,0-3.7-1.7-3.7-3.7V75c0-2,1.7-3.7,3.7-3.7s3.7,1.7,3.7,3.7v25.5
				C264.9,102.5,263.2,104.2,261.2,104.2z"/>
		</g>
		<g>
			<path class="st1" d="M273.9,91.4h-25.5c-2,0-3.7-1.7-3.7-3.7s1.7-3.7,3.7-3.7h25.5c2,0,3.7,1.7,3.7,3.7S276,91.4,273.9,91.4z"/>
		</g>
	</g>
	<g class="st0">
		<g>
			<path class="st1" d="M653.4,253.1c-2,0-3.7-1.7-3.7-3.7v-25.5c0-2,1.7-3.7,3.7-3.7s3.7,1.7,3.7,3.7v25.5
				C657.1,251.4,655.4,253.1,653.4,253.1z"/>
		</g>
		<g>
			<path class="st1" d="M666.1,240.3h-25.5c-2,0-3.7-1.7-3.7-3.7s1.7-3.7,3.7-3.7h25.5c2,0,3.7,1.7,3.7,3.7S668.2,240.3,666.1,240.3
				z"/>
		</g>
	</g>
	<g class="st0">
		<g>
			<path class="st1" d="M734.2,529.4c-2,0-3.7-1.7-3.7-3.7v-25.5c0-2,1.7-3.7,3.7-3.7s3.7,1.7,3.7,3.7v25.5
				C738,527.7,736.3,529.4,734.2,529.4z"/>
		</g>
		<g>
			<path class="st1" d="M747,516.7h-25.5c-2,0-3.7-1.7-3.7-3.7c0-2,1.7-3.7,3.7-3.7H747c2,0,3.7,1.7,3.7,3.7
				C750.8,515,749.1,516.7,747,516.7z"/>
		</g>
	</g>
	<path class="st3" d="M498,551.5H305.5c-16.3,0-29.5-13.2-29.5-29.5V143.5c0-16.3,13.2-29.5,29.5-29.5H498
		c16.3,0,29.5,13.2,29.5,29.5V522C527.5,538.3,514.2,551.5,498,551.5z"/>
	<path class="st4" d="M280.1,464.8c0,2.1-1.4,3.4-3.4,3.4c-2.1,0-4.1-1.4-4.1-3.4V142.1c0-7.6,3.4-14.4,8.9-19.9
		c4.8-4.8,11.7-8.2,19.9-8.2h197.4c8.2,0,15.1,3.4,19.9,8.2l0.7,0.7c4.8,4.8,8.2,11.6,8.2,19.2v381.7c0,7.5-3.4,14.4-8.9,19.8
		c-4.8,4.8-11.6,8.2-19.9,8.2H301.3c-8.2,0-15.1-3.4-19.9-8.2c-5.5-5.5-8.9-12.3-8.9-19.8c0-2.1,2.1-4.1,4.1-4.1
		c2.1,0,3.4,2.1,3.4,4.1c0,5.5,2.7,11,6.2,14.4c4.1,4.1,8.9,6.2,15.1,6.2h197.4c6.2,0,11-2.1,15.1-6.2c3.4-3.4,6.2-8.9,6.2-14.4
		V142.1c0-5.5-2.7-10.3-6.2-14.4l0,0c-4.1-4.1-8.9-6.2-15.1-6.2H301.3c-6.2,0-11,2.1-15.1,6.2c-3.4,3.4-6.2,8.9-6.2,14.4V464.8z"/>
	<path class="st4" d="M381.5,135.9h37c4.1,0,6.9,2.8,7.6,6.9c0,0.7,0.7,2.1,0.7,3.4c0,1.4-0.7,2.1-0.7,3.4c-0.7,4.1-3.4,6.8-7.6,6.8
		h-37c-4.1,0-6.8-2.7-7.5-6.8c0-1.4-0.7-2.1-0.7-3.4c0-1.4,0.7-2.7,0.7-3.4C374.6,138.6,377.4,135.9,381.5,135.9L381.5,135.9z
		 M418.5,142.7h-37c0,0,0,0.7-0.7,1.4c0,0.7,0,1.4,0,2.1c0,0.7,0,1.4,0,2.1c0.7,0.7,0.7,0.7,0.7,0.7h37c0,0,0,0,0.7-0.7
		c0-0.7,0-1.4,0-2.1c0-0.7,0-1.4,0-2.1C418.5,143.4,418.5,142.7,418.5,142.7L418.5,142.7z"/>
	<path class="st4" d="M400,492.9c-4.1,0-7.6,2.1-10.3,4.1c-2.7,2.7-4.1,6.8-4.1,10.9c0,4.1,1.4,7.5,4.1,10.3
		c2.7,2.7,6.2,4.1,10.3,4.1c4.1,0,7.5-1.4,10.3-4.1c2.7-2.7,4.1-6.2,4.1-10.3c0-4.1-1.4-8.2-4.1-10.9
		C407.5,494.9,404.1,492.9,400,492.9L400,492.9z M384.2,492.2c4.1-4.1,9.6-6.9,15.8-6.9c6.2,0,11.6,2.7,15.7,6.9
		c4.1,4.1,6.2,9.6,6.2,15.8c0,5.5-2.1,11-6.2,15.1c-4.1,4.1-9.6,6.8-15.7,6.8c-6.2,0-11.7-2.7-15.8-6.8c-4.1-3.5-6.2-9.6-6.2-15.1
		C378.1,501.8,380.1,496.3,384.2,492.2L384.2,492.2z"/>
	<path class="st4" d="M321.2,172.9c2.1,0,4.1,1.4,4.1,3.4c0,2.1-2.1,4.1-4.1,4.1h-17.8V462h193.2V180.4H376c-2.1,0-3.4-2.1-3.4-4.1
		c0-2.1,1.4-3.4,3.4-3.4h124.7c2,0,3.4,1.4,3.4,3.4v289.2c0,2-1.4,4.1-3.4,4.1H299.3c-2.1,0-3.4-2.1-3.4-4.1V176.3
		c0-2.1,1.4-3.4,3.4-3.4H321.2z"/>
	<path class="st5" d="M360.2,172.9c2.1,0,4.1,1.4,4.1,3.4c0,2.1-2.1,4.1-4.1,4.1c-2.1,0-3.4-2.1-3.4-4.1
		C356.8,174.3,358.2,172.9,360.2,172.9L360.2,172.9z"/>
	<g class="st0">
		<g>
			<path class="st1" d="M348.5,268.5c-1.4-1.4-1.4-3.8,0-5.3l18.1-18.1c1.4-1.4,3.8-1.4,5.3,0c1.4,1.4,1.4,3.8,0,5.3l-18.1,18.1
				C352.4,270,350,270,348.5,268.5z"/>
		</g>
		<g>
			<path class="st1" d="M366.6,268.5l-18.1-18.1c-1.4-1.4-1.4-3.8,0-5.3c1.4-1.4,3.8-1.4,5.3,0l18.1,18.1c1.4,1.4,1.4,3.8,0,5.3
				C370.4,270,368.1,270,366.6,268.5z"/>
		</g>
	</g>
	<g class="st0">
		<g>
			<path class="st1" d="M431.6,268.5c-1.4-1.4-1.4-3.8,0-5.3l18.1-18.1c1.4-1.4,3.8-1.4,5.3,0c1.4,1.4,1.4,3.8,0,5.3l-18.1,18.1
				C435.4,270,433,270,431.6,268.5z"/>
		</g>
		<g>
			<path class="st1" d="M449.6,268.5l-18.1-18.1c-1.4-1.4-1.4-3.8,0-5.3c1.4-1.4,3.8-1.4,5.3,0l18.1,18.1c1.4,1.4,1.4,3.8,0,5.3
				S451.1,270,449.6,268.5z"/>
		</g>
	</g>
	<g class="st0">
		<path class="st6" d="M371,354.5c-0.3,0-0.5,0-0.8-0.1c-1.2-0.4-1.8-1.8-1.4-3c0.1-0.2,2.3-6.1,7.2-11.7c6.6-7.7,14.9-11.3,24-10.5
			c0.9,0.1,24.4,1.8,30.3,22.4c0.3,1.2-0.4,2.5-1.6,2.8c-1.2,0.3-2.5-0.4-2.8-1.6c-5-17.5-25.3-19-26.2-19.1
			c-18.6-1.6-26.4,19.1-26.5,19.3C372.8,354,371.9,354.5,371,354.5z"/>
	</g>
</g>
<g id="Layer_1">
</g>
</svg>
