<?xml version="1.0" encoding="utf-8"?>
<!-- Generator: Adobe Illustrator 19.0.0, SVG Export Plug-In . SVG Version: 6.00 Build 0)  -->
<svg version="1.1" id="Capa_1" xmlns="http://www.w3.org/2000/svg" xmlns:xlink="http://www.w3.org/1999/xlink" x="0px" y="0px"
	 viewBox="-70 162.667 469.333 469.333" enable-background="new -70 162.667 469.333 469.333" xml:space="preserve">
<g>
	<polygon fill="#E2EDF3" points="81.181,473.934 -7.501,473.934 -7.501,230.059 336.141,230.059 336.141,473.934 247.459,473.934 	
		"/>
	<polygon fill="#ACC7D3" points="-3.21,468.392 -7.501,468.392 -7.501,224.517 9.127,224.517 9.127,468.392 4.836,468.392 	"/>
	<rect x="59.012" y="412.965" fill="#5700FF" width="210.619" height="33.256"/>
	<rect x="59.012" y="412.965" fill="#4003D8" width="16.628" height="33.256"/>
	<polyline fill="#FFCB57" points="241.917,291.028 258.545,291.028 258.545,412.965 70.096,412.965 70.096,291.028 86.724,291.028 	
		"/>
	<polyline fill="#FA852D" points="85.338,291.028 86.724,291.028 86.724,412.965 70.096,412.965 70.096,291.028 71.481,291.028 	"/>
	<rect x="97.81" y="286.178" width="133.022" height="10.392"/>
	<g>
		<rect x="136.608" y="347.147" fill="#FFFFFF" width="11.085" height="10.392"/>
		<rect x="180.949" y="347.147" fill="#FFFFFF" width="11.085" height="10.392"/>
	</g>
	<polygon fill="#5700FF" points="14.669,257.772 -7.501,257.772 -7.501,224.517 25.755,224.517 	"/>
	<rect x="-7.501" y="224.517" fill="#4003D8" width="16.628" height="33.256"/>
	<polygon fill="#5700FF" points="25.755,468.392 -7.501,468.392 -7.501,435.135 14.669,435.135 	"/>
	<rect x="-7.501" y="435.135" fill="#4003D8" width="16.628" height="33.256"/>
	<rect x="131.066" y="241.837" width="66.511" height="10.392"/>
	<rect x="153.236" y="264.008" width="22.17" height="10.392"/>
	<g>
		<polygon fill="#5700FF" points="336.141,257.772 313.97,257.772 302.885,224.517 336.141,224.517 		"/>
		<polygon fill="#5700FF" points="336.141,468.392 302.885,468.392 313.97,435.135 336.141,435.135 		"/>
	</g>
	<path d="M296.022,219.667H33.31h-45.66v43.648v166.971v43.648h45.662h44.743l28.001,98.002l26.087-21.07L164.321,575l32.18-24.135
		l26.087,21.07l27.999-98.002h45.435h45.661v-43.648v-44.341h-10.392v44.341h-20.719l-11.085,33.256h-45.93l2.423-8.481h-0.001
		c0.312-1.092,0.437-2.202,0.4-3.297h18.794v-43.648h-11.085V286.177H242.61v10.392h11.085v111.545H75.638V296.571h11.778v-10.393
		h-22.17v121.938H54.161v43.648h18.1c-0.037,1.095,0.087,2.204,0.399,3.297l2.423,8.482H29.846l-11.085-33.256H-1.958V263.315h20.72
		l11.085-33.256h269.64l11.085,33.256h20.719v110.852h10.392V263.315v-43.648H296.022z M318.061,440.679h13.229v22.863H310.44
		L318.061,440.679z M85.145,460.925l24.521,19.805l-15.234,12.696L85.145,460.925z M202.591,480.604l-38.27,30.91l-38.271-30.911
		l34.61-28.84h7.322L202.591,480.604z M184.215,451.763h54.084l-27.464,22.183L184.215,451.763z M117.806,473.947l-27.464-22.183
		h54.084L117.806,473.947z M111.734,553.989l-6.701-23.453l18.531,13.899L111.734,553.989z M131.904,537.698l-29.679-22.259
		l-3.908-11.723l19.592-16.327l38.141,30.806L131.904,537.698z M164.32,562.01l-23.84-17.88l23.84-19.255l23.84,19.255
		L164.32,562.01z M216.905,553.989l-11.83-9.555l18.531-13.899L216.905,553.989z M226.415,515.439l-29.679,22.259l-24.147-19.503
		l38.141-30.806l19.592,16.327L226.415,515.439z M234.209,493.426l-15.234-12.696l24.521-19.805L234.209,493.426z M64.554,441.371
		v-22.863h0.693h198.841h0.693v22.863h-28.406v-11.778h-10.392v11.778h-56.119v-11.778H159.47v11.778h-56.119v-11.778H92.959v11.778
		H64.554z M11.271,440.679l7.621,22.863h-20.85v-22.863H11.271z M11.271,252.923H-1.958v-22.863h20.85L11.271,252.923z
		 M331.291,252.923h-13.229l-7.621-22.863h20.851L331.291,252.923L331.291,252.923z"/>
</g>
</svg>
