<?xml version="1.0" encoding="utf-8"?>
<!-- Generator: Adobe Illustrator 19.0.0, SVG Export Plug-In . SVG Version: 6.00 Build 0)  -->
<svg version="1.1" id="Capa_1" xmlns="http://www.w3.org/2000/svg" xmlns:xlink="http://www.w3.org/1999/xlink" x="0px" y="0px"
	 viewBox="85 -214.3 469.3 469.3" style="enable-background:new 85 -214.3 469.3 469.3;" xml:space="preserve">
<style type="text/css">
	.st0{fill:#7F00FF;}
	.st1{fill:#2AAD52;}
	.st2{fill:#B05A3D;}
	.st3{fill:#D7875F;}
	.st4{fill:#475D6D;}
	.st5{fill:#F9DC6A;}
	.st6{fill:#E5AC51;}
	.st7{fill:#F2A077;}
	.st8{fill:#FFCCAA;}
	.st9{fill:#EBFBFF;}
	.st10{fill:#00D1B2;}
	.st11{fill:#303C42;}
</style>
<g>
	<g>
		<path class="st0" d="M280.6,210.8h-162c-1.2,0-2.2-1.1-2.1-2.3l6-52.2c2.8-23.9,23-41.9,47-41.9h59.9c24.1,0,44.3,18,47,41.9
			l6,52.2C282.9,209.7,281.9,210.8,280.6,210.8z"/>
		<path class="st1" d="M276.7,156.3c-2.8-23.9-23-41.9-47-41.9h-16.8c24.1,0,44.3,18,47,41.9l6.3,54.5h14.4c1.2,0,2.2-1.1,2.1-2.3
			L276.7,156.3z"/>
		<path class="st2" d="M177.9,78v38c0,12,9.8,21.8,21.8,21.8l0,0c12,0,21.8-9.8,21.8-21.8V78H177.9z"/>
		<g>
			<path class="st3" d="M271,12h-13.3v-32c0-23.2-18.8-41.9-41.9-41.9h-32.2c-23.2,0-41.9,18.8-41.9,41.9v32h-13.3
				c-7.5,0-13.6,6.1-13.6,13.6V32c0,7.5,6.1,13.6,13.6,13.6h13.4c1.6,30.7,26.9,55,58,55c15.5,0,29.6-6.1,40-16
				c10.4-9.9,17.1-23.7,17.9-39H271c7.5,0,13.6-6.1,13.6-13.6v-6.4C284.5,18.1,278.5,12,271,12z"/>
			<path class="st4" d="M141.6-15.7h16.7c4.7,0,9-2.8,10.9-7.1l4.3-9.7c1.2-2.6,4.5-3.5,6.8-1.7l20.5,16c2.1,1.6,4.7,2.5,7.3,2.5
				h49.5v-36.1c0-18-14.6-32.6-32.6-32.6h-39.7c-5.9,0-10.7,4.8-10.7,10.7v5.7h-17.3c-8.7,0-15.8,7.1-15.8,15.8
				C141.6-52.1,141.6-15.7,141.6-15.7z"/>
		</g>
	</g>
	<path class="st5" d="M229.5-120.8v93.1h207.1v-101.2c0-20.5-16.6-37.1-37.1-37.1h-15.1l-1.1-2.3c-6.1-12.6-19-20.7-33-20.7h-52.5
		C260.1-189,229.5-158.5,229.5-120.8z"/>
	<path class="st6" d="M399.5-166h-15.1l-1.1-2.3c-6.1-12.6-19-20.7-33-20.7h-19.8c14,0,26.9,8,33,20.7l1.1,2.3h15.1
		c20.5,0,37.1,16.6,37.1,37.1v101.2h19.8v-101.2C436.6-149.4,420-166,399.5-166z"/>
	<path class="st0" d="M445.1,225.1H221c-1.7,0-3.1-1.5-2.9-3.2l8.4-72.2c3.8-33.1,31.8-58,65.1-58h83c33.3,0,61.3,24.9,65.1,58
		l8.4,72.2C448.2,223.6,446.8,225.1,445.1,225.1z"/>
	<path class="st7" d="M302.9,41.4v60.8c0,16.7,13.5,30.1,30.1,30.1l0,0c16.7,0,30.1-13.5,30.1-30.1V41.4H302.9z"/>
	<path class="st8" d="M450.5-31.2v8.9c0,10.4-8.4,18.8-18.8,18.8h-18.5c-1.1,21.2-10.4,40.2-24.8,54C374,64.2,354.5,72.6,333,72.6
		c-43,0-78-33.7-80.2-76.1h-18.5c-10.4,0-18.8-8.4-18.8-18.8v-8.9c0-10.4,8.4-18.8,18.8-18.8h18.4v-33.5h67.4
		c32.1,0,58.7-23.2,64.1-53.7c0.5-2.7,3.6-3.7,5.6-1.9c14.4,13,23.5,31.9,23.5,52.9v36.3h18.4C442.1-49.9,450.5-41.5,450.5-31.2z"/>
	<path class="st7" d="M431.7-49.9h-18.4v-36.3c0-21-9.1-39.9-23.5-52.9c-2-1.8-5.2-0.7-5.6,1.9c-0.8,4.5-2.1,8.9-3.7,13
		c6.9,11,10.9,24,10.9,38v36.3l-0.1,46.4c-1.1,21.2-10.4,40.2-24.8,54c-11.9,11.4-27.3,19.1-44.4,21.4c3.6,0.5,7.2,0.7,11,0.7
		c21.5,0,41-8.4,55.4-22.1c14.4-13.7,23.7-32.8,24.8-54h18.5c10.4,0,18.8-8.4,18.8-18.8v-8.9C450.5-41.5,442.1-49.9,431.7-49.9z"/>
	<circle class="st9" cx="450.5" cy="155.6" r="74"/>
	<path class="st10" d="M495.4,143.1h-29.6c-1.5,0-2.7-1.2-2.7-2.7v-29.6c0-1.5-1.2-2.7-2.7-2.7h-19.7c-1.5,0-2.7,1.2-2.7,2.7v29.6
		c0,1.5-1.2,2.7-2.7,2.7h-29.6c-1.5,0-2.7,1.2-2.7,2.7v19.7c0,1.5,1.2,2.7,2.7,2.7h29.6c1.5,0,2.7,1.2,2.7,2.7v29.6
		c0,1.5,1.2,2.7,2.7,2.7h19.7c1.5,0,2.7-1.2,2.7-2.7v-29.6c0-1.5,1.2-2.7,2.7-2.7h29.6c1.5,0,2.7-1.2,2.7-2.7v-19.7
		C498.1,144.3,496.9,143.1,495.4,143.1z"/>
	<g>
		<path class="st11" d="M223.8,41.4c-3.2-1.3-6.9,0.2-8.2,3.5c-2.6,6.5-8.9,10.7-15.9,10.7c-4.6,0-8.9-1.8-12.2-5
			c-1.6-1.6-2.9-3.5-3.8-5.7c-1.3-3.2-5-4.8-8.2-3.5s-4.8,5-3.5,8.2c1.5,3.7,3.7,7,6.6,9.9c5.6,5.6,13.1,8.7,21.1,8.7
			c12.2,0,23.1-7.3,27.6-18.6C228.6,46.4,227.1,42.7,223.8,41.4z"/>
		<path class="st11" d="M176.9,15.8V13c0-3.5-2.8-6.3-6.3-6.3s-6.3,2.8-6.3,6.3v2.8c0,3.5,2.8,6.3,6.3,6.3S176.9,19.3,176.9,15.8z"
			/>
		<path class="st11" d="M228.7,6.7c-3.5,0-6.3,2.8-6.3,6.3v2.8c0,3.5,2.8,6.3,6.3,6.3c3.5,0,6.3-2.8,6.3-6.3V13
			C235,9.5,232.2,6.7,228.7,6.7z"/>
		<path class="st11" d="M297,1.2c1.9,4.8,4.8,9.2,8.5,12.9c7.4,7.3,17.1,11.4,27.5,11.4c15.9,0,30-9.5,36-24.2
			c1.3-3.2-0.2-6.9-3.5-8.2c-3.2-1.3-6.9,0.2-8.2,3.5c-4,9.9-13.6,16.3-24.3,16.3c-7,0-13.6-2.7-18.5-7.7c-2.5-2.5-4.4-5.4-5.7-8.7
			c-1.3-3.2-5-4.8-8.2-3.5C297.3-5.7,295.7-2.1,297,1.2z"/>
		<path class="st11" d="M292.8-38.4c3.5,0,6.3-2.8,6.3-6.3v-3.9c0-3.5-2.8-6.3-6.3-6.3c-3.5,0-6.3,2.8-6.3,6.3v3.9
			C286.5-41.2,289.3-38.4,292.8-38.4z"/>
		<path class="st11" d="M373.3-38.4c3.5,0,6.3-2.8,6.3-6.3v-3.9c0-3.5-2.8-6.3-6.3-6.3c-3.5,0-6.3,2.8-6.3,6.3v3.9
			C366.9-41.2,369.8-38.4,373.3-38.4z"/>
		<path class="st11" d="M500.2,92.5c-2.7-2.2-6.7-1.7-8.9,1c-2.2,2.7-1.7,6.7,1,8.9c16.4,12.9,25.8,32.3,25.8,53.2
			c0,37.3-30.4,67.7-67.7,67.7s-67.7-30.4-67.7-67.7s30.4-67.7,67.7-67.7c7,0,14,1.1,20.6,3.2c3.3,1.1,6.9-0.8,7.9-4.1
			s-0.8-6.9-4.1-7.9c-7.9-2.5-16.1-3.8-24.5-3.8c-17.9,0-34.4,5.9-47.8,15.8c-8.9-3.8-18.4-5.7-28.2-5.7h-5V70.9
			c8.5-3.9,16.4-9.3,23.3-15.9c14.7-14,23.8-32.3,26.3-52.2h12.7c13.8,0,25.1-11.3,25.1-25.1v-8.9c0-9.8-5.7-18.3-13.9-22.5v-75.3
			c0-23.9-19.5-43.4-43.4-43.4h-11.1c-7.4-14-22.2-23-38.1-23h-52.5c-14.2,0-28.1,4-40,11.6c-2.9,1.9-3.8,5.8-1.9,8.7
			c1.9,2.9,5.8,3.8,8.7,1.9c9.9-6.3,21.4-9.7,33.2-9.7h52.5c11.6,0,22.3,6.7,27.3,17.1l1.1,2.4c1.1,2.2,3.3,3.5,5.7,3.5h15.1
			c17,0,30.8,13.8,30.8,30.8v72.7h-10.6v-30c0-21.9-9.3-42.9-25.6-57.6c-2.6-2.4-6.3-3.1-9.7-2c-3.3,1.1-5.8,4-6.4,7.5
			c-4.9,28.1-29.3,48.5-57.9,48.5h-67.4h-10.2c-3.5,0-6.3,2.8-6.3,6.3s2.8,6.3,6.3,6.3h3.9v20.9h-10.6v-64.5c0-13.3,4.2-26,12-36.7
			c2.1-2.8,1.5-6.8-1.3-8.8c-2.8-2.1-6.8-1.5-8.8,1.3c-9.5,12.9-14.5,28.1-14.5,44.2v67.1c-8.2,4.1-13.9,12.6-13.9,22.5v8.9
			c0,0.1,0,0.2,0,0.3h-1c-1.3,0-2.5-0.4-3.5-1.2l-20.5-16c-2.6-2-6-2.7-9.2-1.9c-3.2,0.8-5.9,3-7.2,6.1l-4.3,9.7
			c-0.9,2-2.9,3.3-5.2,3.3h-10.4v-30.1c0-5.2,4.3-9.5,9.5-9.5h17.3c3.5,0,6.3-2.8,6.3-6.3v-5.7c0-2.4,2-4.4,4.4-4.4h20
			c3.5,0,6.3-2.8,6.3-6.3c0-3.5-2.8-6.3-6.3-6.3h-20c-9.2,0-16.7,7.3-17.1,16.5h-11c-12.2,0-22.1,9.9-22.1,22.1V-20v4.2V5.7h-7
			c-11,0-19.9,8.9-19.9,19.9V32c0,11,8.9,19.9,19.9,19.9h7.6c3.1,21.5,16.8,39.5,35.6,48.6v7.6h-1.9c-27.3,0-50.2,20.4-53.3,47.5
			l-6,52.2c-0.3,2.4,0.5,4.8,2.1,6.6c1.6,1.8,3.9,2.8,6.3,2.8h75.9c3.5,0,6.3-2.8,6.3-6.3c0-3.5-2.8-6.3-6.3-6.3h-40.4v-35.2
			c0-3.5-2.8-6.3-6.3-6.3s-6.3,2.8-6.3,6.3v35.2h-18.1l5.5-47.5c2.4-20.7,19.9-36.3,40.8-36.3h2.3c2.2,13.3,13.8,23.5,27.7,23.5
			c7.5,0,14.6-2.9,19.9-8.2c4.2-4.2,6.9-9.5,7.8-15.2h2.3c0,0,0,0,0,0c-5,8.4-8.3,18-9.5,28.3l-8.4,72.2c-0.3,2.6,0.5,5.2,2.3,7.2
			c1.7,2,4.2,3.1,6.9,3.1h202.8c8.4,3,17.4,4.6,26.7,4.6c44.3,0,80.4-36.1,80.4-80.4C530.9,130.9,519.7,107.8,500.2,92.5z
			 M356.9,102.1c0,6.4-2.5,12.3-7,16.9c-4.5,4.5-10.5,7-16.8,7c-13.1,0-23.8-10.7-23.8-23.8V75.6c7.6,2.2,15.6,3.3,23.8,3.3
			c8.2,0,16.2-1.1,23.8-3.3V102.1z M221.9-31.2c0-6.9,5.6-12.4,12.4-12.4h18.4c3.5,0,6.3-2.8,6.3-6.3v-27.2h61.1
			c32.9,0,61.2-22.3,69.2-53.7c11.3,12,17.7,28,17.7,44.6v36.3c0,3.5,2.8,6.3,6.3,6.3h18.4c6.9,0,12.4,5.6,12.4,12.4v8.9
			c0,6.9-5.6,12.4-12.4,12.4h-18.5c-3.4,0-6.1,2.6-6.3,6c-1,19-9.1,36.6-22.9,49.7c-6.8,6.5-14.7,11.6-23.2,15
			c-0.1,0-0.2,0.1-0.2,0.1c-8.7,3.5-18,5.3-27.6,5.3c-9.8,0-19.1-1.9-27.6-5.3c-0.1,0-0.2-0.1-0.3-0.1c-25.8-10.5-44.4-35.2-46-64.7
			c-0.2-3.4-2.9-6-6.3-6h-18.5c-6.9,0-12.4-5.6-12.4-12.4V-31.2z M215.1,116c0,4.1-1.6,8-4.5,10.9c-2.9,2.9-6.8,4.5-10.9,4.5
			c-8.5,0-15.5-6.9-15.5-15.5v-11c5,1.2,10.1,1.9,15.5,1.9c5.3,0,10.5-0.6,15.5-1.9V116z M229.6,108h-1.9v-7.6
			c5.9-2.9,11.4-6.7,16.3-11.3c7.3-6.9,12.9-15.6,16.3-25c1.2-3.3-0.5-6.9-3.8-8.1c-3.3-1.2-6.9,0.5-8.1,3.8
			c-2.7,7.6-7.2,14.5-13.1,20.1c-4.8,4.6-10.3,8.1-16.3,10.5c0,0,0,0,0,0c-6.1,2.4-12.6,3.7-19.3,3.7c-6.8,0-13.3-1.3-19.3-3.7
			c-0.1,0-0.1-0.1-0.2-0.1c-18.1-7.3-31.1-24.6-32.2-45.2c-0.2-3.4-2.9-6-6.3-6h-13.4c-4,0-7.2-3.3-7.2-7.2v-6.4
			c0-4,3.2-7.2,7.2-7.2h13.3c3.5,0,6.3-2.8,6.3-6.3V-9.4h10.4c7.2,0,13.8-4.2,16.7-10.8l3.4-7.5L197-13.3c3.2,2.5,7.2,3.9,11.2,3.9
			h4.6c4.4,7.3,12.4,12.2,21.5,12.2H247c3.7,30.4,23,55.8,49.5,68.1v14.4h-5c-20.9,0-39.9,9-53.1,23.4
			C235.6,108.3,232.6,108,229.6,108z M267.7,218.8v-51.1c0-3.5-2.8-6.3-6.3-6.3c-3.5,0-6.3,2.8-6.3,6.3v51.1h-30.2l7.9-68.4
			c3.4-29.9,28.7-52.4,58.8-52.4h5v4.2c0,20.1,16.4,36.5,36.5,36.5c9.7,0,18.9-3.8,25.8-10.7c6.9-6.9,10.7-16.1,10.7-25.8V98h5
			c6,0,11.9,0.9,17.5,2.6c-13.5,14.4-21.9,33.8-21.9,55c0,25.6,12,48.4,30.7,63.1L267.7,218.8L267.7,218.8z"/>
		<path class="st11" d="M440.7,209.5h19.7c5,0,9-4.1,9-9v-26h26c5,0,9-4.1,9-9v-19.7c0-5-4.1-9-9-9h-26v-26c0-5-4.1-9-9-9h-19.7
			c-5,0-9,4.1-9,9v26h-26c-5,0-9,4.1-9,9v19.7c0,5,4.1,9,9,9h26v26C431.6,205.5,435.7,209.5,440.7,209.5z M409.2,161.9v-12.4h26
			c5,0,9-4.1,9-9v-26h12.4v26c0,5,4.1,9,9,9h26v12.4h-26c-5,0-9,4.1-9,9v26h-12.4v-26c0-5-4.1-9-9-9L409.2,161.9L409.2,161.9z"/>
	</g>
</g>
</svg>
