<?xml version="1.0" encoding="utf-8"?>
<!-- Generator: Adobe Illustrator 19.0.0, SVG Export Plug-In . SVG Version: 6.00 Build 0)  -->
<svg version="1.1" id="Capa_1" xmlns="http://www.w3.org/2000/svg" xmlns:xlink="http://www.w3.org/1999/xlink" x="0px" y="0px"
	 viewBox="85 -214.3 469.3 469.3" style="enable-background:new 85 -214.3 469.3 469.3;" xml:space="preserve">
<style type="text/css">
	.st0{fill:#00D1B2;}
	.st1{fill:#F4F4F4;}
	.st2{fill:#7F00FF;}
	.st3{fill:#E9BC82;}
</style>
<g>
	<g>
		<path class="st0" d="M259.7,120.2c0-45.1-36.6-81.7-81.7-81.7c-12.3,0-24,2.7-34.5,7.6c-27.9,13-47.2,41.3-47.2,74.1
			c0,45.1,36.6,81.7,81.7,81.7c32.8,0,61.1-19.3,74.1-47.2C257,144.2,259.7,132.5,259.7,120.2z"/>
		<path class="st1" d="M178,38.5c45.1,0,81.7,36.6,81.7,81.7c0,12.3-2.7,24-7.6,34.5h226.1v-43.2c0-11.9,9.7-21.6,21.6-21.6H543
			V-81.4H143.5v33.8v93.7C154,41.2,165.7,38.5,178,38.5z"/>
		<path class="st1" d="M499.8,90c-11.9,0-21.6,9.7-21.6,21.6v43.2L543,90L499.8,90L499.8,90z"/>
		<path class="st1" d="M543,90l-64.7,64.7h46.6c10,0,18.2-8.2,18.2-18.2V90L543,90z"/>
		<path class="st2" d="M143.5-81.4H543v-36.3c0-10-8.2-18.2-18.2-18.2h-18.2h-36.3h-36.3h-36.3h-36.3h-36.3h-36.3h-36.3h-36.3h-36.3
			h-18.2c-10,0-18.2,8.2-18.2,18.2V-81.4z"/>
		<polygon class="st3" points="252.5,-31.4 301.2,-31.4 434.1,-31.4 434.1,14 434.1,108.1 301.2,108.1 301.2,14 252.5,14 		"/>
	</g>
	<path d="M211.6,111.1h-24.5V70.4c0-5-4.1-9.1-9.1-9.1c-5,0-9.1,4.1-9.1,9.1v49.8c0,5,4.1,9.1,9.1,9.1h33.6c5,0,9.1-4.1,9.1-9.1
		C220.7,115.2,216.6,111.1,211.6,111.1z"/>
	<path d="M207.1-40.5h-0.2c-5,0-9.1,4.1-9.1,9.1s4.1,9.1,9.1,9.1h0.2c5,0,9.1-4.1,9.1-9.1C216.2-36.4,212.1-40.5,207.1-40.5z"/>
	<path d="M479.5-22.3h0.2c5,0,9.1-4.1,9.1-9.1s-4.1-9.1-9.1-9.1h-0.2c-5,0-9.1,4.1-9.1,9.1S474.4-22.3,479.5-22.3z"/>
	<path d="M552.1,136.5v-254.2c0-15-12.2-27.2-27.2-27.2h-9.1v-16.3c0-5-4.1-9.1-9.1-9.1c-5,0-9.1,4.1-9.1,9.1v16.3h-18.2v-16.3
		c0-5-4.1-9.1-9.1-9.1c-5,0-9.1,4.1-9.1,9.1v16.3h-18.2v-16.3c0-5-4.1-9.1-9.1-9.1c-5,0-9.1,4.1-9.1,9.1v16.3h-18.2v-16.3
		c0-5-4.1-9.1-9.1-9.1c-5,0-9.1,4.1-9.1,9.1v16.3h-18.2v-16.3c0-5-4.1-9.1-9.1-9.1c-5,0-9.1,4.1-9.1,9.1v16.3h-18.2v-16.3
		c0-5-4.1-9.1-9.1-9.1c-5,0-9.1,4.1-9.1,9.1v16.3h-18.2v-16.3c0-5-4.1-9.1-9.1-9.1c-5,0-9.1,4.1-9.1,9.1v16.3h-18.2v-16.3
		c0-5-4.1-9.1-9.1-9.1c-5,0-9.1,4.1-9.1,9.1v16.3h-18.2v-16.3c0-5-4.1-9.1-9.1-9.1s-9.1,4.1-9.1,9.1v16.3h-18.2v-16.3
		c0-5-4.1-9.1-9.1-9.1c-5,0-9.1,4.1-9.1,9.1v16.3h-9.1c-15,0-27.2,12.2-27.2,27.2V40.6C106.3,56,87.2,85.9,87.2,120.2
		c0,50.1,40.7,90.8,90.8,90.8c34.3,0,64.2-19.1,79.6-47.2h267.2C539.9,163.8,552.1,151.6,552.1,136.5L552.1,136.5
		C552.1,136.5,552.1,136.5,552.1,136.5z M161.7-126.7h9.1v4.5c0,5,4.1,9.1,9.1,9.1c5,0,9.1-4.1,9.1-9.1v-4.5h18.2v4.5
		c0,5,4.1,9.1,9.1,9.1s9.1-4.1,9.1-9.1v-4.5h18.2v4.5c0,5,4.1,9.1,9.1,9.1s9.1-4.1,9.1-9.1v-4.5h18.2v4.5c0,5,4.1,9.1,9.1,9.1
		s9.1-4.1,9.1-9.1v-4.5H316v4.5c0,5,4.1,9.1,9.1,9.1c5,0,9.1-4.1,9.1-9.1v-4.5h18.2v4.5c0,5,4.1,9.1,9.1,9.1c5,0,9.1-4.1,9.1-9.1
		v-4.5h18.2v4.5c0,5,4.1,9.1,9.1,9.1c5,0,9.1-4.1,9.1-9.1v-4.5H425v4.5c0,5,4.1,9.1,9.1,9.1c5,0,9.1-4.1,9.1-9.1v-4.5h18.2v4.5
		c0,5,4.1,9.1,9.1,9.1c5,0,9.1-4.1,9.1-9.1v-4.5h18.2v4.5c0,5,4.1,9.1,9.1,9.1c5,0,9.1-4.1,9.1-9.1v-4.5h9.1c5,0,9.1,4.1,9.1,9.1
		v27.2H152.6v-27.2C152.6-122.7,156.7-126.7,161.7-126.7z M178,192.8c-40,0-72.6-32.6-72.6-72.6S138,47.6,178,47.6
		c40,0,72.6,32.6,72.6,72.6S218.1,192.8,178,192.8z M178,29.4c-8.8,0-17.4,1.3-25.4,3.6v-55.4h28.2c5,0,9.1-4.1,9.1-9.1
		s-4.1-9.1-9.1-9.1h-28.2v-31.8h381.3v31.8h-28.2c-5,0-9.1,4.1-9.1,9.1s4.1,9.1,9.1,9.1h28.2V80.9h-34.1
		c-16.9,0-30.7,13.8-30.7,30.7v34.1h-204c2.4-8.1,3.6-16.6,3.6-25.4C268.8,70.1,228.1,29.4,178,29.4z M521.1,99l-33.7,33.7v-21.2
		c0-6.9,5.6-12.5,12.5-12.5H521.1z M524.8,145.6h-24.7l33.7-33.7v24.7C533.9,141.5,529.9,145.6,524.8,145.6z"/>
	<path d="M288.8,59.4v45.4c0,5,4.1,9.1,9.1,9.1h45.4h45.4h45.4c5,0,9.1-4.1,9.1-9.1V59.4V14v-45.4c0-5-4.1-9.1-9.1-9.1h-45.4h-45.4
		h-45.4h-45.4c-5,0-9.1,4.1-9.1,9.1V14c0,5,4.1,9.1,9.1,9.1h36.3V59.4z M425,50.3h-27.2V23.1H425V50.3z M379.6,50.3h-27.2V23.1h27.2
		V50.3z M334.2,50.3H307V23.1h27.2V50.3z M307,68.5h27.2v27.2H307V68.5z M352.4,68.5h27.2v27.2h-27.2V68.5z M425,95.7h-27.2V68.5
		H425V95.7z M425,4.9h-27.2v-27.2H425V4.9z M379.6,4.9h-27.2v-27.2h27.2V4.9z M334.2,4.9H307v-27.2h27.2V4.9z M261.6-22.3h27.2V4.9
		h-27.2V-22.3z"/>
</g>
</svg>
