<?xml version="1.0" encoding="utf-8"?>
<!-- Generator: Adobe Illustrator 19.0.0, SVG Export Plug-In . SVG Version: 6.00 Build 0)  -->
<svg version="1.1" id="Capa_1" xmlns="http://www.w3.org/2000/svg" xmlns:xlink="http://www.w3.org/1999/xlink" x="0px" y="0px"
	 viewBox="-70 162.667 469.333 469.333" enable-background="new -70 162.667 469.333 469.333" xml:space="preserve">
<path fill="#303C42" d="M399.331,344c-0.003-3.298-1.521-6.409-4.133-8.427c0,0-26.228-20.345-60.198-47.004V248
	c0-23.531-19.135-42.667-42.667-42.667h-61.792c-15.199-12.413-28.389-23.387-37.198-31.198
	c-8.474-7.496-18.575-11.467-28.672-11.468c-10.106-0.001-20.209,3.976-28.671,11.469c-8.809,7.811-21.997,18.785-37.207,31.198
	h-62.46c-23.531,0-42.667,19.135-42.667,42.667v41.092c-33.632,26.397-59.521,46.47-59.531,46.48
	c-2.612,2.018-4.13,5.129-4.133,8.427H-70v245.333C-70,612.864-50.865,632-27.333,632h384c23.531,0,42.667-19.135,42.667-42.667V344
	H399.331z"/>
<g>
	<path fill="#CCCCCC" d="M371.271,343.99c-8.398,6.518-21.207,16.48-36.271,28.259v-56.57
		C350.076,327.482,362.861,337.444,371.271,343.99z"/>
	<path fill="#CCCCCC" d="M150.146,190.105c9.146-8.104,19.885-8.115,29.052,0.01c4.801,4.246,10.855,9.406,17.81,15.219h-64.674
		C139.29,199.52,145.345,194.356,150.146,190.105z"/>
</g>
<path fill="#FFFFFF" d="M36.333,226.667h256c11.76,0,21.333,9.573,21.333,21.333v140.967
	c-47.695,37.461-107.372,84.93-134.469,108.918c-2.573,2.281-7.938,6.115-14.865,6.115c-5.063,0-9.948-2.052-14.531-6.115
	C122.413,473.634,62.602,425.986,15,388.537V248C15,236.24,24.573,226.667,36.333,226.667z"/>
<path fill="#CCCCCC" d="M-6.333,316.202v55.589c-14.771-11.569-27.336-21.361-35.604-27.79
	C-33.664,337.555-21.109,327.77-6.333,316.202z"/>
<path fill="#FAFAFA" d="M356.667,610.667h-384c-11.76,0-21.333-9.573-21.333-21.333V365.779
	c44.49,34.63,147.421,115.396,184.323,148.086c8.479,7.5,18.396,11.469,28.677,11.469c10.354,0,20.656-4.073,29.01-11.469
	c38.35-33.96,143.323-115.968,184.656-148.093v223.561C378,601.094,368.427,610.667,356.667,610.667z"/>
<linearGradient id="SVGID_1_" gradientUnits="userSpaceOnUse" x1="-197.7555" y1="182.5359" x2="-182.3086" y2="197.9819" gradientTransform="matrix(21.3333 0 0 21.3333 4276.7729 -3634.9795)">
	<stop  offset="0" style="stop-color:#000000;stop-opacity:0.1"/>
	<stop  offset="1" style="stop-color:#000000;stop-opacity:0"/>
</linearGradient>
<path fill="url(#SVGID_1_)" d="M356.671,610.667c11.76,0,21.333-9.573,21.333-21.333V365.772
	c-41.333,32.125-146.306,114.133-184.656,148.092c-8.354,7.396-18.656,11.469-29.01,11.469c-10.281,0-20.198-3.969-28.677-11.469
	C98.759,481.174-4.172,400.408-48.662,365.778l244.887,244.889H356.671z"/>
<path fill="#7F00FF" d="M132.667,397.334c5.198,0,10.181-0.793,15.022-1.967c11.749,14.113,29.22,23.3,48.978,23.3
	c35.292,0,64-28.708,64-64s-28.708-64-64-64c-5.198,0-10.181,0.793-15.022,1.967c-11.749-14.113-29.22-23.301-48.978-23.301
	c-35.292,0-64,28.708-64,64S97.375,397.334,132.667,397.334z M154,354.667c0-14.686,7.457-27.656,18.781-35.335
	c1.544,4.409,2.552,9.072,2.552,14.001c0,14.686-7.457,27.656-18.781,35.335C155.008,364.259,154,359.597,154,354.667z M196.667,312
	c23.531,0,42.667,19.135,42.667,42.667s-19.135,42.667-42.667,42.667c-10.879,0-20.71-4.214-28.253-10.938
	c17.034-11.512,28.253-31,28.253-53.063c0-7.375-1.507-14.35-3.811-20.948C194.13,312.271,195.362,312,196.667,312z
	 M132.667,290.667c10.879,0,20.71,4.214,28.253,10.938c-17.034,11.512-28.253,31-28.253,53.063c0,7.375,1.507,14.35,3.811,20.948
	c-1.276,0.116-2.507,0.385-3.811,0.385c-23.531,0-42.667-19.135-42.667-42.667S109.135,290.667,132.667,290.667z"/>
<linearGradient id="SVGID_2_" gradientUnits="userSpaceOnUse" x1="-203.4428" y1="185.7342" x2="-180.7553" y2="196.314" gradientTransform="matrix(21.3333 0 0 21.3333 4276.7729 -3634.9795)">
	<stop  offset="0" style="stop-color:#FFFFFF;stop-opacity:0.2"/>
	<stop  offset="1" style="stop-color:#FFFFFF;stop-opacity:0"/>
</linearGradient>
<path fill="url(#SVGID_2_)" d="M399.331,344c-0.003-3.298-1.521-6.409-4.133-8.427c0,0-26.228-20.345-60.198-47.004V248
	c0-23.531-19.135-42.667-42.667-42.667h-61.792c-15.199-12.413-28.389-23.387-37.198-31.198
	c-8.474-7.496-18.575-11.467-28.672-11.468c-10.106-0.001-20.209,3.976-28.671,11.469c-8.809,7.811-21.997,18.785-37.207,31.198
	h-62.46c-23.531,0-42.667,19.135-42.667,42.667v41.092c-33.632,26.397-59.521,46.47-59.531,46.48
	c-2.612,2.018-4.13,5.129-4.133,8.427H-70v245.333C-70,612.864-50.865,632-27.333,632h384c23.531,0,42.667-19.135,42.667-42.667V344
	H399.331z"/>
</svg>
