<?xml version="1.0" encoding="utf-8"?>
<!-- Generator: Adobe Illustrator 19.0.0, SVG Export Plug-In . SVG Version: 6.00 Build 0)  -->
<svg version="1.1" id="Capa_1" xmlns="http://www.w3.org/2000/svg" xmlns:xlink="http://www.w3.org/1999/xlink" x="0px" y="0px"
	 viewBox="85 -214.3 469.3 469.3" style="enable-background:new 85 -214.3 469.3 469.3;" xml:space="preserve">
<style type="text/css">
	.st0{fill:#7F00FF;}
	.st1{fill:#AD6BF9;}
	.st2{fill:#00D1B2;}
</style>
<g>
	<path class="st0" d="M287.9,139.5l-87.4-87.4c-6.2-6.2-7.1-16-2.2-23.3L229-16c5-7.3,4.1-17.1-2.2-23.3l-70.2-70.2
		c-7.2-7.2-18.8-7.2-25.9,0l0,0c-48.7,48.7-48.7,127.6,0,176.3l142.6,142.6c48.7,48.7,127.6,48.7,176.3,0l0,0
		c7.2-7.2,7.2-18.8,0-25.9l-70.2-70.2c-6.2-6.2-16-7.1-23.3-2.2l-44.8,30.7C303.9,146.7,294.1,145.8,287.9,139.5z"/>
	<g>
		<path class="st1" d="M209.2,12.9L229-16c5-7.3,4.1-17.1-2.2-23.3l-70.2-70.2c-7.2-7.2-18.8-7.2-25.9,0l0,0
			c-7.6,7.6-14,15.9-19.2,24.7L209.2,12.9z"/>
		<path class="st1" d="M424.9,228.6c8.8-5.2,17.1-11.6,24.7-19.2l0,0c7.2-7.2,7.2-18.8,0-25.9l-70.2-70.2c-6.2-6.2-16-7.1-23.3-2.2
			l-28.9,19.8L424.9,228.6z"/>
	</g>
	<path class="st2" d="M412.5-205.2c-73.3,0-132.7,59.4-132.7,132.7c0,35,13.6,66.9,35.8,90.6l0,0l0,47.2L369.1,53
		c13.6,4.7,28.2,7.2,43.3,7.2c73.3,0,132.7-59.4,132.7-132.7S485.8-205.2,412.5-205.2z"/>
	<path d="M385.8,106.7c-9.3-9.3-24.1-10.7-35-3.3L306,134.1c-3.6,2.5-8.5,2-11.7-1.1L207,45.6c-3.1-3.1-3.6-8-1.1-11.7l30.7-44.8
		c7.5-10.9,6.1-25.6-3.3-35L163-116c-10.7-10.7-28.2-10.7-38.9,0C72-63.9,72,21.1,124.1,73.2l59.1,59.1c3.6,3.6,9.4,3.6,13,0
		c3.6-3.6,3.6-9.4,0-13l-59.1-59.1c-21.8-21.8-33.8-50.8-33.8-81.7s12-59.9,33.8-81.7c1.7-1.7,4-2.7,6.5-2.7c2.4,0,4.8,1,6.5,2.7
		l70.2,70.2c3.1,3.1,3.6,8,1.1,11.7L207.8-1.2l-52.5-52.5c-3.6-3.6-9.4-3.6-13,0c-3.6,3.6-3.6,9.4,0,13l54.9,54.9l-6.5,9.5
		c-7.5,10.9-6.1,25.6,3.3,35l87.4,87.4c9.3,9.3,24.1,10.7,35,3.3l44.8-30.7c3.6-2.5,8.5-2,11.7,1.1l70.2,70.2c1.7,1.7,2.7,4,2.7,6.5
		c0,2.4-1,4.8-2.7,6.5c-5.3,5.3-11,10-17.1,14.1l-54.8-54.8c-3.6-3.6-9.4-3.6-13,0c-3.6,3.6-3.6,9.4,0,13l51.1,51.1
		c-14.9,6.8-31.2,10.4-48,10.4c-30.9,0-59.9-12-81.7-33.8l-38.2-38.2c-3.6-3.6-9.4-3.6-13,0c-3.6,3.6-3.6,9.4,0,13l38.2,38.2
		c26.1,26.1,60.4,39.1,94.6,39.1c34.3,0,68.5-13,94.6-39.1c10.7-10.7,10.7-28.2,0-38.9L385.8,106.7z"/>
	<path d="M212.6,139.6c-2.4,0-4.8,1-6.5,2.7c-1.7,1.7-2.7,4.1-2.7,6.5s1,4.8,2.7,6.5c1.7,1.7,4.1,2.7,6.5,2.7c2.4,0,4.8-1,6.5-2.7
		c1.7-1.7,2.7-4.1,2.7-6.5s-1-4.8-2.7-6.5C217.4,140.5,215,139.6,212.6,139.6z"/>
	<path d="M339.7-104.3c0,5.1,4.1,9.2,9.2,9.2h105c-3.4,3.6-3.3,9.3,0.2,12.8c1.8,1.8,4.1,2.7,6.5,2.7s4.7-0.9,6.5-2.7l15.5-15.5
		c3.6-3.6,3.6-9.4,0-13l-15.5-15.5c-3.6-3.6-9.4-3.6-13,0c-3.5,3.5-3.6,9.2-0.2,12.8h-105C343.8-113.5,339.7-109.4,339.7-104.3z"/>
	<path d="M357.9-20c1.8,1.8,4.1,2.7,6.5,2.7s4.7-0.9,6.5-2.7c3.5-3.5,3.6-9.2,0.2-12.8h105c5.1,0,9.2-4.1,9.2-9.2s-4.1-9.2-9.2-9.2
		H371c3.4-3.6,3.3-9.3-0.2-12.8c-3.6-3.6-9.4-3.6-13,0l-15.5,15.5c-3.6,3.6-3.6,9.4,0,13L357.9-20z"/>
	<path d="M412.5-214.3c-23.6,0-46.9,5.9-67.5,17.1c-4.5,2.4-6.1,8-3.7,12.4c2.4,4.5,8,6.1,12.4,3.7c17.9-9.7,38.3-14.9,58.8-14.9
		C480.6-196,536-140.6,536-72.5C536-4.4,480.6,51,412.5,51c-13.8,0-27.4-2.3-40.3-6.7c-1.6-0.6-3.4-0.7-5.1-0.3l-42.3,9.8l0-35.7
		c0-2.3-0.9-4.6-2.5-6.3C300.8-11.1,289-41,289-72.5c0-20.8,5.3-41.3,15.2-59.4c2.4-4.4,0.8-10-3.6-12.5c-4.4-2.4-10-0.8-12.5,3.6
		c-11.4,20.8-17.5,44.4-17.5,68.3c0,34.9,12.7,68.2,35.8,94.2l0,43.7c0,2.8,1.3,5.4,3.5,7.2c1.6,1.3,3.7,2,5.7,2
		c0.7,0,1.4-0.1,2.1-0.2l51-11.8c14.1,4.6,28.8,6.9,43.8,6.9c78.2,0,141.9-63.6,141.9-141.9S490.7-214.3,412.5-214.3z"/>
	<path d="M319-157.5c2.4,0,4.7-0.9,6.5-2.7c0,0,0.1-0.1,0.1-0.1c3.6-3.6,3.5-9.4-0.1-13c-3.6-3.6-9.4-3.5-13,0.1
		c0,0-0.1,0.1-0.1,0.1c-3.6,3.6-3.5,9.4,0.1,13C314.3-158.3,316.7-157.5,319-157.5z"/>
</g>
</svg>
