<?xml version="1.0" encoding="utf-8"?>
<!-- Generator: Adobe Illustrator 19.0.0, SVG Export Plug-In . SVG Version: 6.00 Build 0)  -->
<svg version="1.1" id="Capa_1" xmlns="http://www.w3.org/2000/svg" xmlns:xlink="http://www.w3.org/1999/xlink" x="0px" y="0px"
	 viewBox="-70 162.667 469.333 469.333" enable-background="new -70 162.667 469.333 469.333" xml:space="preserve">
<g>
	<path fill="#8DD1F7" d="M370.246,287.391l-1.868,1.868c-11.367,11.367-29.824,11.367-41.19,0l-49.554-49.554
		c-11.376-11.376-11.376-29.824,0-41.199l1.868-1.868c11.376-11.376,29.824-11.376,41.199,0l33.615,33.625l15.93,15.93
		C381.622,257.567,381.622,276.015,370.246,287.391z"/>
	<g>
		<path fill="#CCEFFF" d="M370.246,287.391l-1.868,1.868c-11.367,11.367-29.824,11.367-41.19,0l-15.93-15.93
			c-11.376-11.376-11.376-29.824,0-41.199l1.868-1.868c11.367-11.376,29.815-11.376,41.19,0l15.93,15.93
			C381.622,257.567,381.622,276.015,370.246,287.391z"/>
		<path fill="#CCEFFF" d="M266.186,458.968L129.945,595.208c-15.109,15.109-39.592,15.109-54.702,0L-28.32,491.645
			c-15.109-15.109-15.109-39.593,0-54.702l136.241-136.241c24.482-24.482,61.853-28.205,90.255-11.189
			c4.494-7.967,10.277-15.677,17.332-22.732c8.732-8.732,18.473-15.544,28.484-20.318c10.785-5.165,21.885-7.953,32.383-8.268
			l52.319,52.319c-0.309,10.505-3.104,21.599-8.261,32.39c-4.774,10.012-11.594,19.744-20.325,28.477
			c-7.055,7.055-14.764,12.836-22.732,17.332C294.397,397.122,290.668,434.486,266.186,458.968z"/>
	</g>
	<g>
		<path fill="#8DD1F7" d="M287.251,416.012c-1.98,15.706-9.005,30.893-21.069,42.956L129.945,595.205
			c-15.111,15.111-39.592,15.111-54.703,0l-103.56-103.561c-15.111-15.111-15.111-39.591,0-54.703l15.744-15.744
			c4.08,1.348,8.829,2.165,14.601,2.165c32.528,0,32.528-26.022,65.056-26.022c32.519,0,32.519,26.022,65.047,26.022
			s32.528-26.022,65.056-26.022s32.528,26.022,65.056,26.022C273.636,423.363,281.043,420.166,287.251,416.012z"/>
		<path fill="#8DD1F7" d="M291.097,252.92c-7.639,3.178-16.394,8.3-25.604,15.046c-8.531,6.254-17.453,13.885-26.18,22.621
			c-7.054,7.054-13.383,14.219-18.857,21.208c-15.623-4.238-43.522,8.96-68.002,33.439L16.206,481.471
			C1.095,496.582-5.792,514.176,0.815,520.783l-29.136-29.136c-15.111-15.111-15.111-39.591,0-54.703l136.238-136.245
			c24.48-24.48,61.849-28.198,90.261-11.19c4.489-7.965,10.269-15.67,17.333-22.723c8.727-8.736,18.466-15.549,28.476-20.325
			c10.79-5.158,21.886-7.947,32.389-8.262L291.097,252.92z"/>
	</g>
	<g>
		<path fill="#DBDBDB" d="M51.184,478.785l132.528-132.528l0,0c13.487-13.487,35.354-13.487,48.841,0l0,0
			c13.487,13.487,13.487,35.354,0,48.841l0,0L100.024,527.626"/>
		<polyline fill="#DBDBDB" points="51.184,527.626 1.086,477.529 158.034,320.58 183.712,346.258 		"/>
	</g>
	<g>
		<path fill="#8DD1F7" d="M222.651,404.999c-6.301-4.303-13.783-7.658-25.465-7.658c-32.528,0-32.528,26.022-65.056,26.022
			c-1.617,0-3.16-0.065-4.628-0.186c-6.598-0.557-11.72-2.277-16.106-4.61c-11.302-5.957-17.705-15.846-31.701-19.647L1.089,477.527
			l50.093,50.102l20.623-28.225l0,0l28.225,28.225L222.651,404.999z"/>
		<path fill="#8DD1F7" d="M100.024,478.785L100.024,478.785c13.487,13.487,13.487,35.354,0,48.841l0,0
			c-13.487,13.487-35.354,13.487-48.841,0l0,0c-13.487-13.487-13.487-35.354,0-48.841l0,0
			C64.671,465.298,86.538,465.298,100.024,478.785z"/>
	</g>
	<path fill="#303C42" d="M282.19,435.948c-3.38-1.845-7.613-0.599-9.457,2.781c-3.055,5.601-6.915,10.752-11.477,15.311
		l-136.24,136.24c-5.99,5.991-13.954,9.291-22.422,9.291s-16.431-3.299-22.422-9.291L-23.392,486.716
		c-12.363-12.363-12.363-32.48,0-44.844c2.723-2.723,2.723-7.135-0.001-9.857c-2.722-2.723-7.134-2.723-9.857,0
		c-17.797,17.799-17.797,46.759,0,64.559L70.314,600.137c8.625,8.625,20.089,13.374,32.28,13.374c12.192,0,23.656-4.75,32.28-13.374
		l136.24-136.24c5.502-5.501,10.165-11.724,13.857-18.494C286.815,442.024,285.569,437.79,282.19,435.948z"/>
	<path fill="#303C42" d="M112.85,305.631c21.764-21.764,55.38-25.933,81.744-10.138c1.613,0.966,3.549,1.238,5.365,0.759
		c1.818-0.481,3.363-1.676,4.287-3.313c4.327-7.669,9.774-14.812,16.189-21.227c7.981-7.981,16.914-14.358,26.565-18.96
		c8.696-4.163,17.76-6.695,26.415-7.404l48.129,48.128c-0.703,8.635-3.233,17.703-7.403,26.43
		c-4.589,9.623-10.97,18.555-18.964,26.549c-6.416,6.416-13.558,11.863-21.227,16.188c-1.637,0.924-2.832,2.47-3.312,4.287
		c-0.481,1.818-0.208,3.753,0.758,5.365c4.1,6.846,6.915,14.309,8.367,22.185c0.619,3.359,3.549,5.708,6.847,5.708
		c0.419,0,0.845-0.038,1.271-0.116c3.785-0.698,6.29-4.333,5.592-8.118c-1.334-7.231-3.618-14.174-6.812-20.724
		c6.559-4.264,12.719-9.264,18.373-14.919c9.119-9.118,16.416-19.348,21.687-30.4c3.702-7.75,6.307-15.786,7.724-23.711
		c4.273,1.692,8.804,2.544,13.337,2.544c9.245,0,18.491-3.52,25.529-10.557l1.868-1.868c6.816-6.817,10.57-15.882,10.57-25.526
		s-3.754-18.71-10.571-25.526l-49.552-49.552c-14.077-14.076-36.979-14.075-51.053,0l-1.87,1.869
		c-10.488,10.489-13.156,25.879-8.012,38.868c-7.936,1.419-15.971,4.025-23.7,7.726c-11.075,5.282-21.308,12.577-30.413,21.681
		c-5.653,5.653-10.653,11.812-14.916,18.371c-30.806-15.062-68.027-9.094-92.671,15.549c-2.723,2.723-2.723,7.134,0.001,9.858
		C105.713,308.353,110.127,308.353,112.85,305.631z M282.561,203.437l1.87-1.869c4.318-4.319,9.994-6.48,15.669-6.48
		c5.674,0,11.349,2.16,15.669,6.48l49.552,49.552c4.184,4.184,6.488,9.749,6.488,15.67s-2.304,11.485-6.488,15.67
		c0,0,0,0-0.001,0.001l-1.867,1.868c-8.044,8.045-20.78,8.588-29.472,1.656c-0.116-0.135-0.231-0.27-0.358-0.397l-52.319-52.319
		c-0.126-0.126-0.261-0.242-0.397-0.357C273.971,224.217,274.516,211.481,282.561,203.437z"/>
	<path fill="#303C42" d="M3.845,411.748c1.784,0,3.568-0.68,4.93-2.041l86.7-86.701c2.723-2.723,2.723-7.135,0-9.857
		c-2.723-2.723-7.135-2.723-9.858,0l-86.7,86.701c-2.723,2.723-2.723,7.135,0,9.857C0.277,411.067,2.062,411.748,3.845,411.748z"/>
	<path fill="#303C42" d="M172.928,464.581l37.679-37.679c2.723-2.723,2.723-7.135,0-9.857c-2.723-2.723-7.135-2.723-9.858,0
		l-37.679,37.679c-2.723,2.723-2.723,7.135,0,9.857c1.361,1.36,3.146,2.041,4.93,2.041
		C169.783,466.623,171.567,465.942,172.928,464.581z"/>
	<path fill="#303C42" d="M235.016,393.459c3.372,1.861,7.611,0.635,9.47-2.734c8.876-16.083,5.994-36.395-7.005-49.396
		c-7.84-7.84-18.262-12.157-29.35-12.157c-8.726,0-17.034,2.685-24.002,7.646l-21.166-21.167c-1.307-1.307-3.08-2.041-4.93-2.041
		s-3.621,0.734-4.93,2.041l-64.98,64.98c-2.723,2.723-2.723,7.135,0,9.857c1.361,1.36,3.146,2.041,4.93,2.041s3.568-0.68,4.93-2.041
		l60.051-60.052l15.819,15.82l-53.855,53.855c-2.723,2.723-2.723,7.135,0,9.857c1.361,1.36,3.146,2.041,4.93,2.041
		c1.784,0,3.568-0.68,4.93-2.041l58.775-58.776c0.003-0.003,0.006-0.005,0.009-0.008c0.002-0.002,0.004-0.005,0.006-0.006
		c5.207-5.203,12.127-8.068,19.487-8.068c7.364,0,14.285,2.867,19.493,8.074c8.636,8.636,10.551,22.124,4.658,32.801
		C230.422,387.359,231.645,391.598,235.016,393.459z"/>
	<path fill="#303C42" d="M66.695,421.778c2.723-2.723,2.723-7.135,0-9.857c-2.723-2.723-7.135-2.723-9.858,0l-60.68,60.68
		c-2.723,2.723-2.723,7.135,0,9.857l50.097,50.098c8.092,8.092,18.721,12.138,29.35,12.138s21.258-4.046,29.35-12.138l49.853-49.853
		c2.723-2.723,2.723-7.135,0-9.857c-2.723-2.723-7.135-2.723-9.858,0l-27.935,27.935c-0.568-9.807-4.582-19.449-12.059-26.924
		c-7.26-7.26-16.737-11.492-26.904-12.079l22.378-22.377c2.723-2.723,2.723-7.135,0-9.857c-2.723-2.723-7.134-2.723-9.858,0
		l-44.315,44.313c-7.476,7.476-11.49,17.118-12.059,26.924l-23.252-23.252L66.695,421.778z M56.112,483.714
		c5.207-5.207,12.128-8.074,19.492-8.074c7.364,0,14.285,2.867,19.492,8.074c10.747,10.747,10.747,28.235,0,38.983
		c-10.746,10.746-28.236,10.747-38.982,0C45.365,511.949,45.365,494.461,56.112,483.714z"/>
	<path fill="#303C42" d="M392.363,416.397c-13.82,0-20.472-5.321-28.176-11.483c-8.519-6.815-18.174-14.539-36.884-14.539
		s-28.365,7.724-36.884,14.539c-7.704,6.162-14.356,11.483-28.176,11.483c-13.82,0-20.471-5.321-28.174-11.483
		c-8.519-6.815-18.174-14.539-36.883-14.539c-18.708,0-28.364,7.724-36.882,14.539c-7.702,6.162-14.354,11.483-28.173,11.483
		c-13.817,0-20.468-5.321-28.171-11.483c-8.518-6.815-18.173-14.539-36.881-14.539c-18.709,0-28.364,7.724-36.882,14.539
		c-7.702,6.162-14.354,11.483-28.172,11.483c-13.819,0-20.471-5.321-28.173-11.483c-8.519-6.815-18.174-14.539-36.882-14.539
		c-3.85,0-6.97,3.121-6.97,6.97s3.12,6.97,6.97,6.97c13.818,0,20.47,5.321,28.172,11.483c8.519,6.815,18.174,14.539,36.883,14.539
		s28.364-7.724,36.882-14.539c7.702-6.162,14.354-11.483,28.172-11.483s20.469,5.321,28.172,11.483
		c8.518,6.815,18.172,14.539,36.88,14.539c18.709,0,28.364-7.724,36.883-14.539c7.702-6.162,14.354-11.483,28.172-11.483
		c13.819,0,20.47,5.321,28.173,11.483c8.519,6.815,18.174,14.539,36.884,14.539c18.71,0,28.365-7.724,36.884-14.539
		c7.704-6.162,14.356-11.483,28.176-11.483s20.472,5.321,28.176,11.483c8.519,6.815,18.174,14.539,36.884,14.539
		c3.85,0,6.97-3.121,6.97-6.97C399.333,419.517,396.214,416.397,392.363,416.397z"/>
</g>
</svg>
