<?xml version="1.0" encoding="utf-8"?>
<!-- Generator: Adobe Illustrator 19.0.0, SVG Export Plug-In . SVG Version: 6.00 Build 0)  -->
<svg version="1.1" id="Capa_1" xmlns="http://www.w3.org/2000/svg" xmlns:xlink="http://www.w3.org/1999/xlink" x="0px" y="0px"
	 viewBox="85 -214.3 469.3 469.3" style="enable-background:new 85 -214.3 469.3 469.3;" xml:space="preserve">
<style type="text/css">
	.st0{fill:#93CA66;}
	.st1{fill:#7F00FF;}
	.st2{fill:#303C42;}
</style>
<g>
	<g>
		<path class="st0" d="M231.6-43.3c0.1-0.1,0.3-0.2,0.4-0.3C231.8-43.5,231.7-43.4,231.6-43.3z"/>
		<path class="st0" d="M537.4-36.9c0.5,0.8,0.9,1.6,1.2,2.5C538.3-35.2,537.9-36.1,537.4-36.9z"/>
		<path class="st0" d="M516.8-48.8c6.5,0,12.4,2.6,16.7,6.9C529.3-46.2,523.4-48.8,516.8-48.8H246.7c-2.3,0-4.5,0.3-6.5,0.9
			c2.1-0.6,4.3-0.9,6.5-0.9H516.8z"/>
		<path class="st0" d="M237.4-46.9c0.6-0.3,1.2-0.5,1.8-0.7C238.5-47.4,237.9-47.1,237.4-46.9z"/>
		<path class="st1" d="M344.1,53.7l-121-78.8l-0.9,22.8c-0.3,6.6-5.7,11.8-12.3,11.8H122c-7.6,0-13.8,6.2-13.8,13.8
			c0,7.6,6.2,13.8,13.8,13.8h79.3c10.5,0,18.8,8.7,18.4,19.2l0,0c-0.4,9.9-8.5,17.6-18.4,17.6h-20.7c-7.6,0-13.8,6.2-13.8,13.8l0,0
			c0,7.6,6.2,13.8,13.8,13.8H205c7,0,12.6,5.8,12.3,12.8l-1,24.8c0,13.1,10.6,23.7,23.7,23.7H510c13.1,0,23.7-10.6,23.7-23.7
			l6.8-164.2L406.6,54.9C387.3,66.5,363,66,344.1,53.7z"/>
		<path class="st0" d="M539.1-33c0.2,0.6,0.4,1.3,0.6,1.9C539.6-31.8,539.4-32.4,539.1-33z"/>
	</g>
	<path class="st1" d="M539.1-33c-0.2-0.5-0.3-0.9-0.5-1.4c-0.4-0.9-0.8-1.7-1.2-2.5c-0.5-0.9-1-1.7-1.6-2.5
		c-0.7-0.9-1.4-1.8-2.2-2.6c-4.3-4.3-10.2-6.9-16.7-6.9H246.7c-2.3,0-4.5,0.3-6.5,0.9c-0.4,0.1-0.7,0.2-1.1,0.3
		c-0.6,0.2-1.2,0.4-1.8,0.7c-2,0.8-3.8,2-5.4,3.3c-0.1,0.1-0.3,0.2-0.4,0.3c-5.2,4.3-8.5,10.9-8.5,18.1l0,0l121,78.8
		c18.9,12.3,43.2,12.8,62.5,1.2l133.9-80.1c0-2-0.3-4-0.7-5.9C539.6-31.8,539.4-32.4,539.1-33z"/>
	<path class="st1" d="M112.6,102.4h10c7.6,0,13.8-6.2,13.8-13.8s-6.2-13.8-13.8-13.8h-10c-7.6,0-13.8,6.2-13.8,13.8
		S105,102.4,112.6,102.4z"/>
	<path class="st2" d="M207.3,139C207.3,139,207.3,139,207.3,139c0,17.4,13.7,31.7,31,32.6c0.6,0,1.1,0,1.7,0H510c0.6,0,1.1,0,1.7,0
		c0.2,0,0.3,0,0.5,0c0.4,0,0.8,0,1.1-0.1c0.2,0,0.4-0.1,0.6-0.1c0.3,0,0.7-0.1,1-0.1c0.2,0,0.5-0.1,0.7-0.1c0.3-0.1,0.6-0.1,0.9-0.2
		c0.3-0.1,0.5-0.1,0.8-0.2c0.3-0.1,0.5-0.1,0.8-0.2c0.3-0.1,0.5-0.1,0.8-0.2c0.3-0.1,0.5-0.1,0.8-0.2c0.3-0.1,0.5-0.2,0.8-0.3
		c0.3-0.1,0.5-0.2,0.8-0.3c0.3-0.1,0.5-0.2,0.7-0.3c0.2-0.1,0.5-0.2,0.7-0.3c0.2-0.1,0.5-0.2,0.7-0.3c0.2-0.1,0.5-0.2,0.7-0.3
		c0.2-0.1,0.5-0.2,0.7-0.4c0.2-0.1,0.5-0.2,0.7-0.4c0.2-0.1,0.5-0.3,0.7-0.4c0.2-0.1,0.5-0.3,0.7-0.4c0.2-0.1,0.5-0.3,0.7-0.4
		c0.2-0.1,0.4-0.3,0.6-0.4c0.2-0.2,0.4-0.3,0.7-0.5c0.2-0.1,0.4-0.3,0.6-0.4c0.2-0.2,0.4-0.3,0.6-0.5c0.2-0.2,0.4-0.3,0.6-0.5
		c0.2-0.2,0.4-0.4,0.6-0.5c0.2-0.2,0.4-0.3,0.6-0.5c0.2-0.2,0.4-0.4,0.6-0.5c0.2-0.2,0.4-0.3,0.6-0.5c0.2-0.2,0.4-0.4,0.6-0.6
		c0.2-0.2,0.4-0.4,0.5-0.6c0.2-0.2,0.3-0.4,0.5-0.6c0.2-0.2,0.3-0.4,0.5-0.6c0.2-0.2,0.3-0.4,0.5-0.6c0.2-0.2,0.3-0.4,0.5-0.6
		c0.2-0.2,0.3-0.4,0.5-0.6c0.2-0.2,0.3-0.4,0.5-0.6c0.1-0.2,0.3-0.4,0.4-0.7c0.1-0.2,0.3-0.4,0.4-0.7c0.1-0.2,0.3-0.5,0.4-0.7
		c0.1-0.2,0.3-0.4,0.4-0.7c0.1-0.2,0.2-0.5,0.4-0.7c0.1-0.2,0.2-0.5,0.4-0.7c0.1-0.2,0.2-0.5,0.3-0.7c0.1-0.2,0.2-0.5,0.3-0.7
		c0.1-0.2,0.2-0.5,0.3-0.7c0.1-0.2,0.2-0.5,0.3-0.7c0.1-0.2,0.2-0.5,0.3-0.8s0.2-0.5,0.3-0.8s0.1-0.5,0.2-0.8
		c0.1-0.3,0.2-0.5,0.2-0.8c0.1-0.3,0.1-0.5,0.2-0.8c0.1-0.3,0.1-0.5,0.2-0.8c0.1-0.3,0.1-0.5,0.1-0.8c0-0.3,0.1-0.5,0.1-0.8
		c0-0.3,0.1-0.6,0.1-0.8c0-0.3,0.1-0.5,0.1-0.8c0-0.3,0-0.6,0.1-0.8c0-0.3,0-0.5,0.1-0.8c0-0.3,0-0.6,0-0.9c0-0.2,0-0.5,0-0.7
		l6.8-164.1c0-0.1,0-0.2,0-0.4c0-18-14.6-32.6-32.6-32.6H246.7l0,0c0,0-0.1,0-0.1,0c-0.5,0-1,0-1.6,0c-0.2,0-0.4,0-0.6,0
		c-0.3,0-0.7,0-1,0.1c-0.3,0-0.5,0.1-0.8,0.1c-0.3,0-0.6,0.1-0.9,0.1c-0.3,0-0.5,0.1-0.8,0.1c-0.3,0-0.5,0.1-0.8,0.1
		c-0.3,0.1-0.6,0.1-0.8,0.2c-0.2,0.1-0.5,0.1-0.7,0.2c-0.3,0.1-0.6,0.2-0.8,0.2c-0.2,0.1-0.5,0.1-0.7,0.2c-0.3,0.1-0.5,0.2-0.8,0.3
		c-0.2,0.1-0.5,0.2-0.7,0.2c-0.3,0.1-0.5,0.2-0.8,0.3c-0.2,0.1-0.5,0.2-0.7,0.3c-0.3,0.1-0.5,0.2-0.8,0.4c-0.2,0.1-0.4,0.2-0.7,0.3
		c-0.3,0.1-0.5,0.3-0.8,0.4c-0.2,0.1-0.4,0.2-0.6,0.3c-0.3,0.1-0.5,0.3-0.7,0.4c-0.2,0.1-0.4,0.2-0.6,0.4c-0.2,0.1-0.5,0.3-0.7,0.5
		c-0.2,0.1-0.4,0.3-0.6,0.4c-0.2,0.2-0.5,0.3-0.7,0.5c-0.2,0.1-0.4,0.3-0.6,0.4c-0.2,0.2-0.4,0.3-0.7,0.5c-0.2,0.1-0.4,0.3-0.6,0.4
		c-0.2,0.2-0.4,0.4-0.6,0.5c-0.2,0.2-0.4,0.3-0.5,0.5c-0.2,0.2-0.4,0.4-0.6,0.6c-0.2,0.2-0.4,0.3-0.5,0.5c-0.2,0.2-0.4,0.4-0.6,0.6
		c-0.2,0.2-0.3,0.3-0.5,0.5c-0.2,0.2-0.4,0.4-0.5,0.6c-0.2,0.2-0.3,0.4-0.5,0.6c-0.2,0.2-0.3,0.4-0.5,0.6c-0.2,0.2-0.3,0.4-0.5,0.6
		c-0.2,0.2-0.3,0.4-0.5,0.7c-0.1,0.2-0.3,0.4-0.4,0.6c-0.2,0.2-0.3,0.5-0.4,0.7c-0.1,0.2-0.3,0.4-0.4,0.6c-0.1,0.2-0.3,0.5-0.4,0.7
		c-0.1,0.2-0.3,0.4-0.4,0.7c-0.1,0.2-0.2,0.5-0.4,0.7c-0.1,0.2-0.2,0.5-0.4,0.7c-0.1,0.2-0.2,0.5-0.3,0.7c-0.1,0.2-0.2,0.5-0.3,0.7
		c-0.1,0.2-0.2,0.5-0.3,0.7c-0.1,0.2-0.2,0.5-0.3,0.7c-0.1,0.2-0.2,0.5-0.3,0.7c-0.1,0.3-0.2,0.5-0.3,0.8c-0.1,0.2-0.1,0.5-0.2,0.8
		c-0.1,0.3-0.2,0.5-0.2,0.8c-0.1,0.3-0.1,0.5-0.2,0.8c-0.1,0.3-0.1,0.5-0.2,0.8c-0.1,0.3-0.1,0.5-0.1,0.8c-0.1,0.3-0.1,0.6-0.1,0.8
		c0,0.3-0.1,0.5-0.1,0.8c0,0.3-0.1,0.6-0.1,0.9c0,0.3,0,0.5-0.1,0.8c0,0.3-0.1,0.6-0.1,0.9c0,0.3,0,0.5,0,0.8c0,0.3,0,0.5,0,0.8
		l-0.9,22.6c-0.1,1.8-1.5,3.2-3.3,3.2H122c-12.6,0-22.8,10.2-22.8,22.8S109.5,46,122,46h79.3c2.6,0,5,1,6.8,2.9
		c1.8,1.9,2.7,4.3,2.6,6.9c-0.2,5.1-4.3,9-9.4,9h-20.7c-12.6,0-22.8,10.2-22.8,22.8s10.2,22.8,22.8,22.8H205c1.2,0,2,0.6,2.4,1
		c0.4,0.4,1,1.2,0.9,2.5l-1,24.8C207.3,138.8,207.3,138.9,207.3,139z M525.4,123L422.1,56.1l108.8-65L525.4,123z M233.2-30.8
		c0-0.1,0.1-0.2,0.2-0.3c0.1-0.3,0.3-0.6,0.4-0.8c0.1-0.1,0.1-0.3,0.2-0.4c0.1-0.3,0.3-0.5,0.5-0.8c0.1-0.1,0.2-0.2,0.2-0.4
		c0.2-0.3,0.4-0.5,0.6-0.8c0.1-0.1,0.1-0.2,0.2-0.2c0.3-0.3,0.6-0.7,0.9-1c0.1-0.1,0.1-0.1,0.2-0.2c0.2-0.2,0.5-0.5,0.7-0.7
		c0.1-0.1,0.2-0.2,0.3-0.3c0.2-0.2,0.5-0.4,0.7-0.5c0.1-0.1,0.2-0.2,0.4-0.3c0.3-0.2,0.5-0.3,0.8-0.5c0.1-0.1,0.2-0.1,0.3-0.2
		c0.4-0.2,0.8-0.4,1.2-0.6c0.1,0,0.1,0,0.2-0.1c0.3-0.1,0.7-0.3,1-0.4c0.1,0,0.3-0.1,0.4-0.1c0.3-0.1,0.6-0.2,0.9-0.2
		c0.2,0,0.3-0.1,0.5-0.1c0.3-0.1,0.6-0.1,0.9-0.1c0.1,0,0.3,0,0.4-0.1c0.5,0,0.9-0.1,1.4-0.1h270.1c0.5,0,0.9,0,1.4,0.1
		c0.1,0,0.3,0,0.4,0.1c0.3,0,0.6,0.1,0.9,0.1c0.2,0,0.3,0.1,0.5,0.1c0.3,0.1,0.6,0.1,0.9,0.2c0.1,0,0.3,0.1,0.4,0.1
		c0.4,0.1,0.8,0.3,1.1,0.4c0,0,0.1,0,0.1,0c0.4,0.2,0.8,0.4,1.2,0.6c0.1,0.1,0.2,0.1,0.3,0.2c0.3,0.2,0.5,0.3,0.8,0.5
		c0.1,0.1,0.2,0.2,0.4,0.2c0.2,0.2,0.5,0.4,0.7,0.5c0.1,0.1,0.2,0.2,0.3,0.3c0.3,0.2,0.6,0.5,0.8,0.7c0,0,0.1,0.1,0.1,0.1
		c0.3,0.3,0.6,0.6,0.9,1c0.1,0.1,0.1,0.2,0.2,0.3c0.2,0.3,0.4,0.5,0.6,0.8c0.1,0.1,0.2,0.2,0.2,0.4c0.2,0.3,0.3,0.5,0.5,0.8
		c0.1,0.1,0.1,0.2,0.2,0.4c0.2,0.3,0.3,0.6,0.5,1c0,0.1,0.1,0.1,0.1,0.2c0.2,0.4,0.3,0.8,0.4,1.1l-125.5,75l-3.3,2
		c-5.3,3.2-11.1,5.3-17,6.3c-3.4,0.6-6.8,0.8-10.2,0.7c-8.2-0.3-16.4-2.5-23.6-6.7c-0.7-0.4-1.4-0.8-2.1-1.3L232.8-29.6
		C232.9-30,233-30.4,233.2-30.8z M205,92.4h-24.3c-2.7,0-4.8-2.2-4.8-4.8s2.2-4.8,4.8-4.8h20.7c14.7,0,26.7-11.5,27.4-26.2
		c0.3-7.5-2.4-14.7-7.6-20.1c-5.2-5.4-12.2-8.4-19.8-8.4H122c-2.7,0-4.8-2.2-4.8-4.8s2.2-4.8,4.8-4.8h87.8c11.5,0,20.8-9,21.3-20.4
		l0.3-7L334,57.8l-15.5,9.3c-4.2,2.6-5.6,8.1-3.1,12.3c2.6,4.2,8.1,5.6,12.3,3.1l24.4-14.7c7.7,2.9,15.9,4.4,24.1,4.4
		c9.6,0,19.2-2,28.1-6.1L524,143.5c-0.1,0.4-0.3,0.8-0.4,1.2c0,0.1-0.1,0.2-0.2,0.3c-0.1,0.3-0.3,0.6-0.4,0.8
		c-0.1,0.1-0.1,0.3-0.2,0.4c-0.1,0.3-0.3,0.5-0.5,0.7c-0.1,0.1-0.2,0.3-0.3,0.4c-0.2,0.3-0.4,0.5-0.6,0.8c-0.1,0.1-0.1,0.2-0.2,0.3
		c-0.3,0.3-0.6,0.6-0.9,1c-0.1,0.1-0.2,0.1-0.2,0.2c-0.2,0.2-0.5,0.5-0.7,0.7c-0.1,0.1-0.2,0.2-0.3,0.3c-0.2,0.2-0.5,0.4-0.7,0.5
		c-0.1,0.1-0.3,0.2-0.4,0.3c-0.3,0.2-0.5,0.3-0.8,0.5c-0.1,0.1-0.2,0.1-0.3,0.2c-0.4,0.2-0.8,0.4-1.2,0.6c-0.1,0-0.1,0-0.2,0.1
		c-0.3,0.1-0.7,0.3-1,0.4c-0.1,0-0.3,0.1-0.4,0.1c-0.3,0.1-0.6,0.2-0.9,0.2c-0.2,0-0.3,0.1-0.5,0.1c-0.3,0.1-0.6,0.1-0.9,0.1
		c-0.1,0-0.3,0-0.4,0.1c-0.5,0-0.9,0.1-1.4,0.1H239.9c-0.5,0-0.9,0-1.4-0.1c-0.1,0-0.3,0-0.4-0.1c-0.3,0-0.6-0.1-0.9-0.1
		c-0.2,0-0.3-0.1-0.5-0.1c-0.3-0.1-0.6-0.1-0.9-0.2c-0.1,0-0.3-0.1-0.4-0.1c-0.4-0.1-0.7-0.3-1.1-0.4c0,0-0.1,0-0.1-0.1
		c-0.4-0.2-0.8-0.4-1.2-0.6c-0.1-0.1-0.2-0.1-0.3-0.2c-0.3-0.2-0.5-0.3-0.8-0.5c-0.1-0.1-0.2-0.2-0.4-0.3c-0.2-0.2-0.5-0.3-0.7-0.5
		c-0.1-0.1-0.2-0.2-0.3-0.3c-0.3-0.2-0.5-0.5-0.8-0.7c-0.1,0-0.1-0.1-0.2-0.1c-0.3-0.3-0.6-0.6-0.9-0.9c-0.1-0.1-0.1-0.2-0.2-0.3
		c-0.2-0.2-0.4-0.5-0.6-0.8c-0.1-0.1-0.2-0.2-0.2-0.4c-0.2-0.2-0.3-0.5-0.5-0.8c-0.1-0.1-0.1-0.2-0.2-0.4c-0.2-0.3-0.3-0.6-0.5-0.9
		c0-0.1-0.1-0.2-0.1-0.2c-0.2-0.4-0.3-0.8-0.4-1.1l45.4-27.3c4.2-2.6,5.6-8.1,3.1-12.3c-2.6-4.2-8.1-5.6-12.3-3.1l-36.2,21.8
		l0.3-8.1c0.2-5.9-1.9-11.4-5.9-15.6C216.3,94.8,210.9,92.4,205,92.4z"/>
	<path class="st2" d="M112.6,111.3h10c12.6,0,22.8-10.2,22.8-22.8s-10.2-22.8-22.8-22.8h-10c-12.6,0-22.8,10.2-22.8,22.8
		S100.1,111.3,112.6,111.3z M112.6,83.7h10c2.7,0,4.8,2.2,4.8,4.8c0,2.7-2.2,4.8-4.8,4.8h-10c-2.7,0-4.8-2.2-4.8-4.8
		S110,83.7,112.6,83.7z"/>
	<path class="st2" d="M309.3-83.1c0,5,4,9,9,9h145.5c5,0,9-4,9-9s-4-9-9-9H318.3C313.3-92.1,309.3-88.1,309.3-83.1z"/>
	<path class="st2" d="M398.1-131H252.5c-5,0-9,4-9,9s4,9,9,9h145.6c5,0,9-4,9-9S403-131,398.1-131z"/>
	<path class="st2" d="M426.5-117.1c0.3,0.5,0.7,1,1.1,1.4c0.4,0.4,0.9,0.8,1.4,1.1c0.5,0.3,1,0.6,1.5,0.8c0.5,0.2,1.1,0.4,1.7,0.5
		c0.6,0.1,1.2,0.2,1.8,0.2c0.6,0,1.2-0.1,1.8-0.2c0.6-0.1,1.1-0.3,1.7-0.5c0.5-0.2,1.1-0.5,1.6-0.8c0.5-0.3,1-0.7,1.4-1.1
		c0.4-0.4,0.8-0.9,1.1-1.4c0.3-0.5,0.6-1,0.8-1.5c0.2-0.5,0.4-1.1,0.5-1.7c0.1-0.6,0.2-1.2,0.2-1.8c0-2.4-1-4.7-2.6-6.3
		c-0.4-0.4-0.9-0.8-1.4-1.1c-0.5-0.3-1-0.6-1.6-0.8c-0.5-0.2-1.1-0.4-1.7-0.5c-1.2-0.2-2.4-0.2-3.5,0c-0.6,0.1-1.1,0.3-1.7,0.5
		c-0.5,0.2-1.1,0.5-1.5,0.8c-0.5,0.3-1,0.7-1.4,1.1c-1.7,1.7-2.6,4-2.6,6.3c0,0.6,0.1,1.2,0.2,1.8c0.1,0.6,0.3,1.1,0.5,1.7
		C425.9-118.1,426.2-117.5,426.5-117.1z"/>
	<path class="st2" d="M287.7,95.9c0.2,0.5,0.5,1.1,0.8,1.5c0.3,0.5,0.7,1,1.1,1.4c1.7,1.7,4,2.6,6.3,2.6c0.6,0,1.2-0.1,1.8-0.2
		c0.6-0.1,1.1-0.3,1.7-0.5c0.5-0.2,1.1-0.5,1.6-0.8c0.5-0.3,1-0.7,1.4-1.1s0.8-0.9,1.1-1.4c0.3-0.5,0.6-1,0.8-1.5
		c0.2-0.5,0.4-1.1,0.5-1.7c0.1-0.6,0.2-1.2,0.2-1.8c0-2.4-1-4.7-2.6-6.3c-0.4-0.4-0.9-0.8-1.4-1.1c-0.5-0.3-1-0.6-1.6-0.8
		c-0.5-0.2-1.1-0.4-1.7-0.5c-2.9-0.6-6,0.4-8.1,2.5c-1.7,1.7-2.6,4-2.6,6.3c0,0.6,0.1,1.2,0.2,1.8C287.3,94.8,287.5,95.3,287.7,95.9
		z"/>
</g>
</svg>
