<?xml version="1.0" encoding="utf-8"?>
<!-- Generator: Adobe Illustrator 19.0.0, SVG Export Plug-In . SVG Version: 6.00 Build 0)  -->
<svg version="1.1"
	 id="svg2" xmlns:dc="http://purl.org/dc/elements/1.1/" xmlns:cc="http://creativecommons.org/ns#" xmlns:rdf="http://www.w3.org/1999/02/22-rdf-syntax-ns#" xmlns:svg="http://www.w3.org/2000/svg" xmlns:sodipodi="http://sodipodi.sourceforge.net/DTD/sodipodi-0.dtd" xmlns:inkscape="http://www.inkscape.org/namespaces/inkscape" sodipodi:docname="Microsoft-Office-2013-lineup.svg" inkscape:version="0.48.3.1 r9886"
	 xmlns="http://www.w3.org/2000/svg" xmlns:xlink="http://www.w3.org/1999/xlink" x="0px" y="0px" viewBox="-250 343.5 110 107.5"
	 style="enable-background:new -250 343.5 110 107.5;" xml:space="preserve">
<style type="text/css">
	.st0{fill:#E6FFED;}
	.st1{fill:#207245;}
	.st2{fill:#FFFFFF;}
</style>
<sodipodi:namedview  inkscape:cy="53.75" inkscape:cx="321.51598" inkscape:zoom="1.0905983" fit-margin-left="0" fit-margin-top="0" showgrid="false" guidetolerance="10" gridtolerance="10" objecttolerance="10" borderopacity="1" bordercolor="#666666" pagecolor="#ffffff" id="namedview122" inkscape:current-layer="svg2" inkscape:window-maximized="1" inkscape:window-y="0" inkscape:window-x="0" fit-margin-bottom="0" fit-margin-right="0" inkscape:window-height="960" inkscape:window-width="1280" inkscape:pageshadow="2" inkscape:pageopacity="0">
	</sodipodi:namedview>
<rect x="-250" y="343.5" class="st0" width="110" height="107.5"/>
<g>
	<path id="path10" inkscape:connector-curvature="0" class="st1" d="M-193.3,361.2h5c0,2.2,0,4.5,0,6.7c8.4,0,16.8,0,25.2,0
		c1.4,0.1,3,0,4.2,0.8c0.9,1.2,0.8,2.8,0.8,4.2c0,14.6,0,29.1,0,43.7c0,2.4,0.2,4.9-0.3,7.3c-0.3,1.7-2.4,1.8-3.8,1.8
		c-8.7,0-17.4,0-26.1,0c0,2.5,0,5,0,7.5h-5.2c-12.8-2.3-25.6-4.5-38.4-6.7c0-19.6,0-39.1,0-58.7C-219,365.7-206.2,363.5-193.3,361.2
		z"/>
	<path id="path48" inkscape:connector-curvature="0" class="st2" d="M-188.3,370.4c9.2,0,18.5,0,27.7,0c0,17.6,0,35.2,0,52.8
		c-9.2,0-18.5,0-27.7,0c0-1.7,0-3.4,0-5c2.2,0,4.5,0,6.7,0c0-2,0-3.9,0-5.9c-2.2,0-4.5,0-6.7,0c0-1.1,0-2.2,0-3.4c2.2,0,4.5,0,6.7,0
		c0-2,0-3.9,0-5.9c-2.2,0-4.5,0-6.7,0c0-1.1,0-2.2,0-3.4c2.2,0,4.5,0,6.7,0c0-2,0-3.9,0-5.9c-2.2,0-4.5,0-6.7,0c0-1.1,0-2.2,0-3.4
		c2.2,0,4.5,0,6.7,0c0-2,0-3.9,0-5.9c-2.2,0-4.5,0-6.7,0c0-1.1,0-2.2,0-3.4c2.2,0,4.5,0,6.7,0c0-2,0-3.9,0-5.9c-2.2,0-4.5,0-6.7,0
		C-188.3,373.8-188.3,372.1-188.3,370.4z"/>
	<path id="path58" inkscape:connector-curvature="0" class="st1" d="M-178.2,375.4c3.9,0,7.8,0,11.7,0c0,2,0,3.9,0,5.9
		c-3.9,0-7.8,0-11.7,0C-178.2,379.4-178.2,377.4-178.2,375.4z"/>
	<path id="path72" inkscape:connector-curvature="0" class="st2" d="M-207.1,383.3c1.9-0.1,3.8-0.3,5.7-0.3
		c-2.2,4.6-4.5,9.2-6.8,13.7c2.3,4.7,4.7,9.4,7,14.1c-2-0.1-4-0.2-6.1-0.4c-1.4-3.5-3.2-6.9-4.2-10.5c-1.1,3.4-2.8,6.6-4.1,10
		c-1.8,0-3.7-0.1-5.5-0.2c2.2-4.2,4.2-8.5,6.5-12.7c-1.9-4.3-4-8.6-5.9-12.8c1.8-0.1,3.7-0.2,5.5-0.3c1.2,3.3,2.6,6.5,3.6,9.9
		C-210.1,390.1-208.5,386.8-207.1,383.3z"/>
	<path id="path90" inkscape:connector-curvature="0" class="st1" d="M-178.2,384.7c3.9,0,7.8,0,11.7,0c0,2,0,3.9,0,5.9
		c-3.9,0-7.8,0-11.7,0C-178.2,388.6-178.2,386.6-178.2,384.7z"/>
	<path id="path108" inkscape:connector-curvature="0" class="st1" d="M-178.2,393.9c3.9,0,7.8,0,11.7,0c0,2,0,3.9,0,5.9
		c-3.9,0-7.8,0-11.7,0C-178.2,397.8-178.2,395.8-178.2,393.9z"/>
	<path id="path114" inkscape:connector-curvature="0" class="st1" d="M-178.2,403.1c3.9,0,7.8,0,11.7,0c0,2,0,3.9,0,5.9
		c-3.9,0-7.8,0-11.7,0C-178.2,407-178.2,405.1-178.2,403.1z"/>
	<path id="path120" inkscape:connector-curvature="0" class="st1" d="M-178.2,412.3c3.9,0,7.8,0,11.7,0c0,2,0,3.9,0,5.9
		c-3.9,0-7.8,0-11.7,0C-178.2,416.3-178.2,414.3-178.2,412.3z"/>
</g>
</svg>
