<?xml version="1.0" encoding="utf-8"?>
<!-- Generator: Adobe Illustrator 19.0.0, SVG Export Plug-In . SVG Version: 6.00 Build 0)  -->
<svg version="1.1"
	 id="svg2" xmlns:dc="http://purl.org/dc/elements/1.1/" xmlns:cc="http://creativecommons.org/ns#" xmlns:rdf="http://www.w3.org/1999/02/22-rdf-syntax-ns#" xmlns:svg="http://www.w3.org/2000/svg" xmlns:sodipodi="http://sodipodi.sourceforge.net/DTD/sodipodi-0.dtd" xmlns:inkscape="http://www.inkscape.org/namespaces/inkscape" inkscape:version="0.48.3.1 r9886" sodipodi:docname="Microsoft-Office-2013-lineup.svg"
	 xmlns="http://www.w3.org/2000/svg" xmlns:xlink="http://www.w3.org/1999/xlink" x="0px" y="0px" viewBox="-250 343.5 110 107.5"
	 style="enable-background:new -250 343.5 110 107.5;" xml:space="preserve">
<style type="text/css">
	.st0{fill:#FFE8E6;}
	.st1{fill:#E56353;}
	.st2{fill:#FAFAFA;}
</style>
<sodipodi:namedview  id="namedview122" pagecolor="#ffffff" bordercolor="#666666" borderopacity="1" objecttolerance="10" gridtolerance="10" guidetolerance="10" showgrid="false" fit-margin-top="0" fit-margin-left="0" inkscape:zoom="1.0905983" inkscape:cx="321.51598" inkscape:cy="53.75" inkscape:pageopacity="0" inkscape:pageshadow="2" inkscape:window-width="1280" inkscape:window-height="960" fit-margin-right="0" fit-margin-bottom="0" inkscape:window-x="0" inkscape:window-y="0" inkscape:window-maximized="1" inkscape:current-layer="svg2">
	</sodipodi:namedview>
<rect x="-250" y="343.5" class="st0" width="110" height="107.5"/>
<path class="st1" d="M-219.6,426.1h49.2c2,0,3.5-1.6,3.5-3.5v-50.7c0-2-1.6-3.5-3.5-3.5h-49.2c-2,0-3.5,1.6-3.5,3.5v50.7
	C-223.1,424.5-221.5,426.1-219.6,426.1z"/>
<path class="st2" d="M-206.6,411.8c-0.9,0-1.7-0.5-2-0.9c-1.1-1.3-1.1-2.5-0.9-3.2c0.1-0.7,0.5-1.3,1.1-1.7c0.9-0.7,3.3-2.3,6.8-3.8
	c1.9-3.4,3.1-6.2,4-8.4c-1.5-2.8-2-5.1-2.1-6.2c-0.1-0.9-0.1-1.9,0.2-2.7c0.7-2.1,2.1-2.2,2.7-2.1c0.1,0,2.5,0.3,2.9,3.7
	c0,0.1,0.3,2.3-1.5,7.3c1.1,1.9,2.7,4.1,5.2,6.2c2.3,0,4.9,0.2,7.6,0.9c0.6,0.1,1.1,0.5,1.5,0.9c0.7,0.7,0.8,1.7,0.5,2.6l0,0
	c0,0-0.1,0.5-0.5,0.9c-0.7,1-2.1,1.3-3.3,0.7c-2.5-1.3-4.7-2.7-6.4-4.2c-3.5,0.1-6.7,0.9-9.2,1.9c-1.1,2.1-2.5,4.4-4.2,6.9
	c-0.3,0.5-0.7,0.9-1.3,1.1l0,0C-205.9,411.7-206.3,411.8-206.6,411.8z M-203.3,405c-2,1.1-3.4,2-3.9,2.5c-0.2,0.2-0.4,0.4-0.4,0.6
	c-0.1,0.5,0.1,0.9,0.5,1.5c0,0,0.4,0.3,0.8,0.2l0,0c0.1-0.1,0.3-0.1,0.3-0.3C-205,407.9-204.1,406.4-203.3,405z M-187.7,401.8
	c1.2,0.8,2.5,1.7,4,2.4c0.3,0.1,0.6,0.1,0.8-0.2c0.2-0.3,0.3-0.5,0.3-0.5c0.1-0.3,0.1-0.5-0.1-0.7c-0.1-0.1-0.3-0.3-0.6-0.3
	C-184.7,402.1-186.2,401.9-187.7,401.8z M-196.4,395.8c-0.7,1.5-1.5,3.3-2.5,5.3c1.8-0.5,3.7-1,5.9-1.2
	C-194.4,398.5-195.5,397.1-196.4,395.8z M-197,384.6c-0.3,0-0.5,0.3-0.7,0.9c-0.2,0.5-0.2,1.1-0.1,1.8c0.1,0.8,0.4,2.1,1.1,3.9
	c1-3.2,0.9-4.6,0.9-4.6C-196,384.8-197,384.6-197,384.6L-197,384.6z"/>
</svg>
