<?xml version="1.0" encoding="utf-8"?>
<!-- Generator: Adobe Illustrator 19.0.0, SVG Export Plug-In . SVG Version: 6.00 Build 0)  -->
<svg version="1.1"
	 id="svg2" xmlns:dc="http://purl.org/dc/elements/1.1/" xmlns:cc="http://creativecommons.org/ns#" xmlns:rdf="http://www.w3.org/1999/02/22-rdf-syntax-ns#" xmlns:svg="http://www.w3.org/2000/svg" xmlns:sodipodi="http://sodipodi.sourceforge.net/DTD/sodipodi-0.dtd" xmlns:inkscape="http://www.inkscape.org/namespaces/inkscape" sodipodi:docname="Microsoft-Office-2013-lineup.svg" inkscape:version="0.48.3.1 r9886"
	 xmlns="http://www.w3.org/2000/svg" xmlns:xlink="http://www.w3.org/1999/xlink" x="0px" y="0px" viewBox="-250 343.5 110 107.5"
	 style="enable-background:new -250 343.5 110 107.5;" xml:space="preserve">
<style type="text/css">
	.st0{fill:#FFEFE9;}
	.st1{fill:#D24625;}
	.st2{fill:#FFFFFF;}
</style>
<sodipodi:namedview  inkscape:cy="53.75" inkscape:cx="321.51598" inkscape:zoom="1.0905983" fit-margin-left="0" fit-margin-top="0" showgrid="false" guidetolerance="10" gridtolerance="10" objecttolerance="10" borderopacity="1" bordercolor="#666666" pagecolor="#ffffff" id="namedview122" inkscape:current-layer="svg2" inkscape:window-maximized="1" inkscape:window-y="0" inkscape:window-x="0" fit-margin-bottom="0" fit-margin-right="0" inkscape:window-height="960" inkscape:window-width="1280" inkscape:pageshadow="2" inkscape:pageopacity="0">
	</sodipodi:namedview>
<rect x="-250" y="343.5" class="st0" width="110" height="107.5"/>
<g>
	<path class="st1" d="M-193.1,361.2h4.8v7.5c9,0.1,17.9-0.1,26.9,0c1.9-0.2,3.4,1.3,3.2,3.2c0.1,15.7,0,31.3,0.1,47
		c-0.1,1.7,0.2,3.6-0.8,5.1c-1.2,0.9-2.8,0.8-4.3,0.8c-8.4,0-16.8,0-25.2,0v8.4h-5.2c-12.8-2.3-25.6-4.5-38.4-6.7
		c0-19.6,0-39.1,0-58.7C-219,365.7-206,363.4-193.1,361.2z"/>
	<path class="st2" d="M-188.3,371.3h27.7v51.2h-27.7v-6.7h20.1v-3.4h-20.1v-4.2h20.1v-3.4h-20.1c0-1.6,0-3.3,0-4.9
		c3.3,1,7.1,1,10.1-1c3.2-1.9,4.9-5.5,5.2-9.2c-3.7,0-7.4,0-11,0c0-3.6,0-7.3-0.1-10.9c-1.4,0.3-2.8,0.6-4.1,0.8L-188.3,371.3
		L-188.3,371.3z"/>
	<path class="st1" d="M-182.4,377c5.8,0.3,10.7,5.2,11,11c-3.7,0-7.4,0-11,0C-182.4,384.4-182.4,380.7-182.4,377L-182.4,377z"/>
	<path class="st2" d="M-218.4,383.3c4.6,0.2,10.1-1.8,13.8,1.6c3.6,4.4,2.7,12.5-2.7,15.1c-1.9,1-4.1,0.8-6.2,0.8c0,3.3,0,6.6,0,9.8
		c-1.7-0.1-3.3-0.3-5-0.4C-218.5,401.3-218.5,392.3-218.4,383.3L-218.4,383.3z"/>
	<path class="st1" d="M-213.5,387.9c1.7-0.1,3.7-0.4,4.8,1.2c1,1.6,0.9,3.8,0.1,5.5c-1,1.7-3.1,1.6-4.8,1.8
		C-213.5,393.5-213.5,390.7-213.5,387.9L-213.5,387.9z"/>
</g>
</svg>
