<?xml version="1.0" encoding="utf-8"?>
<!-- Generator: Adobe Illustrator 19.0.0, SVG Export Plug-In . SVG Version: 6.00 Build 0)  -->
<svg version="1.1"
	 id="svg2" xmlns:dc="http://purl.org/dc/elements/1.1/" xmlns:cc="http://creativecommons.org/ns#" xmlns:rdf="http://www.w3.org/1999/02/22-rdf-syntax-ns#" xmlns:svg="http://www.w3.org/2000/svg" xmlns:sodipodi="http://sodipodi.sourceforge.net/DTD/sodipodi-0.dtd" xmlns:inkscape="http://www.inkscape.org/namespaces/inkscape" sodipodi:docname="Microsoft-Office-2013-lineup.svg" inkscape:version="0.48.3.1 r9886"
	 xmlns="http://www.w3.org/2000/svg" xmlns:xlink="http://www.w3.org/1999/xlink" x="0px" y="0px" viewBox="-250 343.5 110 107.5"
	 style="enable-background:new -250 343.5 110 107.5;" xml:space="preserve">
<style type="text/css">
	.st0{fill:#E3F6FF;}
	.st1{fill:#2A5699;}
	.st2{fill:#FFFFFF;}
</style>
<sodipodi:namedview  inkscape:cy="53.75" inkscape:cx="321.51598" inkscape:zoom="1.0905983" fit-margin-left="0" fit-margin-top="0" showgrid="false" guidetolerance="10" gridtolerance="10" objecttolerance="10" borderopacity="1" bordercolor="#666666" pagecolor="#ffffff" id="namedview122" inkscape:current-layer="svg2" inkscape:window-maximized="1" inkscape:window-y="0" inkscape:window-x="0" fit-margin-bottom="0" fit-margin-right="0" inkscape:window-height="960" inkscape:window-width="1280" inkscape:pageshadow="2" inkscape:pageopacity="0">
	</sodipodi:namedview>
<g>
	<rect x="-250" y="343.5" class="st0" width="110" height="107.5"/>
	<g id="g3103" transform="translate(-21.015556,0)">
		<path id="path6" inkscape:connector-curvature="0" class="st1" d="M-172.3,361.5h5c0,2.2,0,4.4,0,6.7c8.9,0,17.8-0.1,26.7,0
			c1.9-0.2,3.4,1.3,3.2,3.2c0.1,16.4,0,32.8,0.1,49.1c-0.1,1.7,0.2,3.5-0.8,5c-1.2,0.9-2.8,0.8-4.2,0.8c-8.3,0-16.6,0-25,0
			c0,2.2,0,4.4,0,6.7h-5.2c-12.7-2.3-25.3-4.4-38-6.7c0-19.4,0-38.8,0-58.2C-197.8,365.9-185.1,363.8-172.3,361.5z"/>
		<path id="path46" inkscape:connector-curvature="0" class="st2" d="M-167.3,370.6c9.1,0,18.3,0,27.4,0c0,17.7,0,35.5,0,53.2
			c-9.1,0-18.3,0-27.4,0c0-2.2,0-4.4,0-6.7c7.2,0,14.4,0,21.6,0c0-1.1,0-2.2,0-3.3c-7.2,0-14.4,0-21.6,0c0-1.4,0-2.8,0-4.2
			c7.2,0,14.4,0,21.6,0c0-1.1,0-2.2,0-3.3c-7.2,0-14.4,0-21.6,0c0-1.4,0-2.8,0-4.2c7.2,0,14.4,0,21.6,0c0-1.1,0-2.2,0-3.3
			c-7.2,0-14.4,0-21.6,0c0-1.4,0-2.8,0-4.2c7.2,0,14.4,0,21.6,0c0-1.1,0-2.2,0-3.3c-7.2,0-14.4,0-21.6,0c0-1.4,0-2.8,0-4.2
			c7.2,0,14.4,0,21.6,0c0-1.1,0-2.2,0-3.3c-7.2,0-14.4,0-21.6,0c0-1.4,0-2.8,0-4.2c7.2,0,14.4,0,21.6,0c0-1.1,0-2.2,0-3.3
			c-7.2,0-14.4,0-21.6,0C-167.3,374.5-167.3,372.6-167.3,370.6z"/>
		<path id="path88" inkscape:connector-curvature="0" class="st2" d="M-193.4,385.3c1.6-0.1,3.2-0.2,4.7-0.2
			c1.1,5.6,2.2,11.2,3.4,16.8c0.9-5.8,2-11.5,3-17.3c1.7-0.1,3.3-0.1,5-0.2c-1.9,8.1-3.5,16.2-5.6,24.2c-1.4,0.7-3.5,0-5.1,0.1
			c-1.1-5.5-2.4-11-3.4-16.5c-1,5.4-2.2,10.7-3.4,16c-1.6-0.1-3.2-0.2-4.8-0.3c-1.4-7.3-3-14.6-4.3-21.9c1.4-0.1,2.9-0.1,4.3-0.2
			c0.9,5.3,1.8,10.6,2.6,15.9C-195.7,396.2-194.5,390.8-193.4,385.3z"/>
	</g>
</g>
</svg>
